<?xml version="1.0" encoding="UTF-8" standalone="no"?>
<!DOCTYPE svg PUBLIC "-//W3C//DTD SVG 1.1//EN"
 "http://www.w3.org/Graphics/SVG/1.1/DTD/svg11.dtd">
<!-- Generated by graphviz version 5.0.0 (20220707.1540)
 -->
<!-- Title: dependencies Pages: 1 -->
<svg width="642pt" height="174pt"
 viewBox="0.00 0.00 642.00 173.80" xmlns="http://www.w3.org/2000/svg" xmlns:xlink="http://www.w3.org/1999/xlink">
<g id="graph0" class="graph" transform="scale(1 1) rotate(0) translate(4 169.8)">
<title>dependencies</title>
<polygon fill="white" stroke="transparent" points="-4,4 -4,-169.8 638,-169.8 638,4 -4,4"/>
<text text-anchor="middle" x="317" y="-8.2" font-family="sans-serif" font-size="14.00">dependencies</text>
<g id="clust1" class="cluster">
<title>cluster_CoreModule</title>
<polygon fill="none" stroke="black" stroke-dasharray="1,5" points="8,-32.8 8,-157.8 626,-157.8 626,-32.8 8,-32.8"/>
</g>
<g id="clust6" class="cluster">
<title>cluster_CoreModule_providers</title>
<polygon fill="none" stroke="black" points="16,-40.8 16,-92.8 618,-92.8 618,-40.8 16,-40.8"/>
</g>
<!-- AuthService -->
<g id="node1" class="node">
<title>AuthService</title>
<ellipse fill="#fdb462" stroke="black" cx="551" cy="-66.8" rx="59.11" ry="18"/>
<text text-anchor="middle" x="551" y="-62.6" font-family="Times,serif" font-size="14.00">AuthService</text>
</g>
<!-- CoreModule -->
<g id="node5" class="node">
<title>CoreModule</title>
<polygon fill="#8dd3c7" stroke="black" points="363.27,-149.8 360.27,-153.8 339.27,-153.8 336.27,-149.8 276.73,-149.8 276.73,-113.8 363.27,-113.8 363.27,-149.8"/>
<text text-anchor="middle" x="320" y="-127.6" font-family="Times,serif" font-size="14.00">CoreModule</text>
</g>
<!-- AuthService&#45;&gt;CoreModule -->
<g id="edge1" class="edge">
<title>AuthService&#45;&gt;CoreModule</title>
<path fill="none" stroke="black" d="M551,-84.91C551,-104.14 551,-131.8 551,-131.8 551,-131.8 373.45,-131.8 373.45,-131.8"/>
<polygon fill="black" stroke="black" points="373.45,-128.3 363.45,-131.8 373.45,-135.3 373.45,-128.3"/>
</g>
<!-- BusEventService -->
<g id="node2" class="node">
<title>BusEventService</title>
<ellipse fill="#fdb462" stroke="black" cx="396" cy="-66.8" rx="77.59" ry="18"/>
<text text-anchor="middle" x="396" y="-62.6" font-family="Times,serif" font-size="14.00">BusEventService</text>
</g>
<!-- BusEventService&#45;&gt;CoreModule -->
<g id="edge2" class="edge">
<title>BusEventService&#45;&gt;CoreModule</title>
<path fill="none" stroke="black" d="M340.92,-79.64C340.92,-79.64 340.92,-103.32 340.92,-103.32"/>
<polygon fill="black" stroke="black" points="337.42,-103.32 340.92,-113.32 344.42,-103.32 337.42,-103.32"/>
</g>
<!-- LogService -->
<g id="node3" class="node">
<title>LogService</title>
<ellipse fill="#fdb462" stroke="black" cx="245" cy="-66.8" rx="55.6" ry="18"/>
<text text-anchor="middle" x="245" y="-62.6" font-family="Times,serif" font-size="14.00">LogService</text>
</g>
<!-- LogService&#45;&gt;CoreModule -->
<g id="edge3" class="edge">
<title>LogService&#45;&gt;CoreModule</title>
<path fill="none" stroke="black" d="M288.58,-78.12C288.58,-78.12 288.58,-103.74 288.58,-103.74"/>
<polygon fill="black" stroke="black" points="285.08,-103.74 288.58,-113.74 292.08,-103.74 285.08,-103.74"/>
</g>
<!-- MessageService -->
<g id="node4" class="node">
<title>MessageService</title>
<ellipse fill="#fdb462" stroke="black" cx="98" cy="-66.8" rx="73.57" ry="18"/>
<text text-anchor="middle" x="98" y="-62.6" font-family="Times,serif" font-size="14.00">MessageService</text>
</g>
<!-- MessageService&#45;&gt;CoreModule -->
<g id="edge4" class="edge">
<title>MessageService&#45;&gt;CoreModule</title>
<path fill="none" stroke="black" d="M98,-84.91C98,-104.14 98,-131.8 98,-131.8 98,-131.8 266.67,-131.8 266.67,-131.8"/>
<polygon fill="black" stroke="black" points="266.67,-135.3 276.67,-131.8 266.67,-128.3 266.67,-135.3"/>
</g>
</g>
</svg>
