<?xml version="1.0" encoding="UTF-8" standalone="no"?>
<!DOCTYPE svg PUBLIC "-//W3C//DTD SVG 1.1//EN"
 "http://www.w3.org/Graphics/SVG/1.1/DTD/svg11.dtd">
<!-- Generated by graphviz version 5.0.0 (20220707.1540)
 -->
<!-- Title: dependencies Pages: 1 -->
<svg width="494pt" height="247pt"
 viewBox="0.00 0.00 494.00 246.80" xmlns="http://www.w3.org/2000/svg" xmlns:xlink="http://www.w3.org/1999/xlink">
<g id="graph0" class="graph" transform="scale(1 1) rotate(0) translate(4 242.8)">
<title>dependencies</title>
<polygon fill="white" stroke="transparent" points="-4,4 -4,-242.8 490,-242.8 490,4 -4,4"/>
<text text-anchor="middle" x="243" y="-8.2" font-family="sans-serif" font-size="14.00">dependencies</text>
<g id="clust1" class="cluster">
<title>cluster_SplashModule</title>
<polygon fill="none" stroke="black" stroke-dasharray="1,5" points="8,-32.8 8,-230.8 478,-230.8 478,-32.8 8,-32.8"/>
</g>
<g id="clust4" class="cluster">
<title>cluster_SplashModule_imports</title>
<polygon fill="none" stroke="black" points="196,-40.8 196,-92.8 470,-92.8 470,-40.8 196,-40.8"/>
</g>
<g id="clust5" class="cluster">
<title>cluster_SplashModule_exports</title>
<polygon fill="none" stroke="black" points="187,-170.8 187,-222.8 363,-222.8 363,-170.8 187,-170.8"/>
</g>
<g id="clust2" class="cluster">
<title>cluster_SplashModule_declarations</title>
<polygon fill="none" stroke="black" points="16,-40.8 16,-92.8 188,-92.8 188,-40.8 16,-40.8"/>
</g>
<!-- SplashScreenComponent -->
<g id="node1" class="node">
<title>SplashScreenComponent</title>
<polygon fill="#ffffb3" stroke="black" points="180.26,-84.8 23.74,-84.8 23.74,-48.8 180.26,-48.8 180.26,-84.8"/>
<text text-anchor="middle" x="102" y="-62.6" font-family="Times,serif" font-size="14.00">SplashScreenComponent</text>
</g>
<!-- SplashModule -->
<g id="node2" class="node">
<title>SplashModule</title>
<polygon fill="#8dd3c7" stroke="black" points="323.39,-149.8 320.39,-153.8 299.39,-153.8 296.39,-149.8 226.61,-149.8 226.61,-113.8 323.39,-113.8 323.39,-149.8"/>
<text text-anchor="middle" x="275" y="-127.6" font-family="Times,serif" font-size="14.00">SplashModule</text>
</g>
<!-- SplashScreenComponent&#45;&gt;SplashModule -->
<g id="edge1" class="edge">
<title>SplashScreenComponent&#45;&gt;SplashModule</title>
<path fill="none" stroke="black" d="M102,-84.91C102,-104.14 102,-131.8 102,-131.8 102,-131.8 216.35,-131.8 216.35,-131.8"/>
<polygon fill="black" stroke="black" points="216.35,-135.3 226.35,-131.8 216.35,-128.3 216.35,-135.3"/>
</g>
<!-- SplashScreenComponent  -->
<g id="node5" class="node">
<title>SplashScreenComponent </title>
<polygon fill="#fb8072" stroke="black" points="355.26,-214.8 194.74,-214.8 194.74,-178.8 355.26,-178.8 355.26,-214.8"/>
<text text-anchor="middle" x="275" y="-192.6" font-family="Times,serif" font-size="14.00">SplashScreenComponent </text>
</g>
<!-- SplashModule&#45;&gt;SplashScreenComponent  -->
<g id="edge4" class="edge">
<title>SplashModule&#45;&gt;SplashScreenComponent </title>
<path fill="none" stroke="black" stroke-dasharray="5,2" d="M275,-149.91C275,-149.91 275,-168.79 275,-168.79"/>
<polygon fill="black" stroke="black" points="271.5,-168.79 275,-178.79 278.5,-168.79 271.5,-168.79"/>
</g>
<!-- SharedModule -->
<g id="node3" class="node">
<title>SharedModule</title>
<polygon fill="#8dd3c7" stroke="black" points="462.43,-84.8 459.43,-88.8 438.43,-88.8 435.43,-84.8 363.57,-84.8 363.57,-48.8 462.43,-48.8 462.43,-84.8"/>
<text text-anchor="middle" x="413" y="-62.6" font-family="Times,serif" font-size="14.00">SharedModule</text>
</g>
<!-- SharedModule&#45;&gt;SplashModule -->
<g id="edge2" class="edge">
<title>SharedModule&#45;&gt;SplashModule</title>
<path fill="none" stroke="black" d="M413,-84.91C413,-104.14 413,-131.8 413,-131.8 413,-131.8 333.65,-131.8 333.65,-131.8"/>
<polygon fill="black" stroke="black" points="333.65,-128.3 323.65,-131.8 333.65,-135.3 333.65,-128.3"/>
</g>
<!-- SplashRoutingModule -->
<g id="node4" class="node">
<title>SplashRoutingModule</title>
<polygon fill="#8dd3c7" stroke="black" points="346.01,-84.8 343.01,-88.8 322.01,-88.8 319.01,-84.8 203.99,-84.8 203.99,-48.8 346.01,-48.8 346.01,-84.8"/>
<text text-anchor="middle" x="275" y="-62.6" font-family="Times,serif" font-size="14.00">SplashRoutingModule</text>
</g>
<!-- SplashRoutingModule&#45;&gt;SplashModule -->
<g id="edge3" class="edge">
<title>SplashRoutingModule&#45;&gt;SplashModule</title>
<path fill="none" stroke="black" d="M275,-84.91C275,-84.91 275,-103.79 275,-103.79"/>
<polygon fill="black" stroke="black" points="271.5,-103.79 275,-113.79 278.5,-103.79 271.5,-103.79"/>
</g>
</g>
</svg>
