<?xml version="1.0" encoding="UTF-8" standalone="no"?>
<!DOCTYPE svg PUBLIC "-//W3C//DTD SVG 1.1//EN"
 "http://www.w3.org/Graphics/SVG/1.1/DTD/svg11.dtd">
<!-- Generated by graphviz version 5.0.0 (20220707.1540)
 -->
<!-- Title: dependencies Pages: 1 -->
<svg width="494pt" height="247pt"
 viewBox="0.00 0.00 494.00 246.80" xmlns="http://www.w3.org/2000/svg" xmlns:xlink="http://www.w3.org/1999/xlink">
<g id="graph0" class="graph" transform="scale(1 1) rotate(0) translate(4 242.8)">
<title>dependencies</title>
<polygon fill="white" stroke="transparent" points="-4,4 -4,-242.8 490,-242.8 490,4 -4,4"/>
<text text-anchor="middle" x="243" y="-8.2" font-family="sans-serif" font-size="14.00">dependencies</text>
<g id="clust1" class="cluster">
<title>cluster_SplashModule</title>
<polygon fill="none" stroke="black" stroke-dasharray="1,5" points="8,-32.8 8,-230.8 478,-230.8 478,-32.8 8,-32.8"/>
</g>
<g id="clust2" class="cluster">
<title>cluster_SplashModule_declarations</title>
<polygon fill="none" stroke="black" points="298,-40.8 298,-92.8 470,-92.8 470,-40.8 298,-40.8"/>
</g>
<g id="clust4" class="cluster">
<title>cluster_SplashModule_imports</title>
<polygon fill="none" stroke="black" points="16,-40.8 16,-92.8 290,-92.8 290,-40.8 16,-40.8"/>
</g>
<g id="clust5" class="cluster">
<title>cluster_SplashModule_exports</title>
<polygon fill="none" stroke="black" points="145,-170.8 145,-222.8 321,-222.8 321,-170.8 145,-170.8"/>
</g>
<!-- SplashScreenComponent -->
<g id="node1" class="node">
<title>SplashScreenComponent</title>
<polygon fill="#ffffb3" stroke="black" points="462.26,-84.8 305.74,-84.8 305.74,-48.8 462.26,-48.8 462.26,-84.8"/>
<text text-anchor="middle" x="384" y="-62.6" font-family="Times,serif" font-size="14.00">SplashScreenComponent</text>
</g>
<!-- SplashModule -->
<g id="node2" class="node">
<title>SplashModule</title>
<polygon fill="#8dd3c7" stroke="black" points="281.39,-149.8 278.39,-153.8 257.39,-153.8 254.39,-149.8 184.61,-149.8 184.61,-113.8 281.39,-113.8 281.39,-149.8"/>
<text text-anchor="middle" x="233" y="-127.6" font-family="Times,serif" font-size="14.00">SplashModule</text>
</g>
<!-- SplashScreenComponent&#45;&gt;SplashModule -->
<g id="edge1" class="edge">
<title>SplashScreenComponent&#45;&gt;SplashModule</title>
<path fill="none" stroke="black" d="M309.38,-84.91C309.38,-104.14 309.38,-131.8 309.38,-131.8 309.38,-131.8 291.8,-131.8 291.8,-131.8"/>
<polygon fill="black" stroke="black" points="291.8,-128.3 281.8,-131.8 291.8,-135.3 291.8,-128.3"/>
</g>
<!-- SplashScreenComponent  -->
<g id="node5" class="node">
<title>SplashScreenComponent </title>
<polygon fill="#fb8072" stroke="black" points="313.26,-214.8 152.74,-214.8 152.74,-178.8 313.26,-178.8 313.26,-214.8"/>
<text text-anchor="middle" x="233" y="-192.6" font-family="Times,serif" font-size="14.00">SplashScreenComponent </text>
</g>
<!-- SplashModule&#45;&gt;SplashScreenComponent  -->
<g id="edge4" class="edge">
<title>SplashModule&#45;&gt;SplashScreenComponent </title>
<path fill="none" stroke="black" stroke-dasharray="5,2" d="M233,-149.91C233,-149.91 233,-168.79 233,-168.79"/>
<polygon fill="black" stroke="black" points="229.5,-168.79 233,-178.79 236.5,-168.79 229.5,-168.79"/>
</g>
<!-- SharedModule -->
<g id="node3" class="node">
<title>SharedModule</title>
<polygon fill="#8dd3c7" stroke="black" points="282.43,-84.8 279.43,-88.8 258.43,-88.8 255.43,-84.8 183.57,-84.8 183.57,-48.8 282.43,-48.8 282.43,-84.8"/>
<text text-anchor="middle" x="233" y="-62.6" font-family="Times,serif" font-size="14.00">SharedModule</text>
</g>
<!-- SharedModule&#45;&gt;SplashModule -->
<g id="edge2" class="edge">
<title>SharedModule&#45;&gt;SplashModule</title>
<path fill="none" stroke="black" d="M233,-84.91C233,-84.91 233,-103.79 233,-103.79"/>
<polygon fill="black" stroke="black" points="229.5,-103.79 233,-113.79 236.5,-103.79 229.5,-103.79"/>
</g>
<!-- SplashRoutingModule -->
<g id="node4" class="node">
<title>SplashRoutingModule</title>
<polygon fill="#8dd3c7" stroke="black" points="166.01,-84.8 163.01,-88.8 142.01,-88.8 139.01,-84.8 23.99,-84.8 23.99,-48.8 166.01,-48.8 166.01,-84.8"/>
<text text-anchor="middle" x="95" y="-62.6" font-family="Times,serif" font-size="14.00">SplashRoutingModule</text>
</g>
<!-- SplashRoutingModule&#45;&gt;SplashModule -->
<g id="edge3" class="edge">
<title>SplashRoutingModule&#45;&gt;SplashModule</title>
<path fill="none" stroke="black" d="M159.44,-84.91C159.44,-104.14 159.44,-131.8 159.44,-131.8 159.44,-131.8 174.34,-131.8 174.34,-131.8"/>
<polygon fill="black" stroke="black" points="174.34,-135.3 184.34,-131.8 174.34,-128.3 174.34,-135.3"/>
</g>
</g>
</svg>
