<?xml version="1.0" encoding="UTF-8" standalone="no"?>
<!DOCTYPE svg PUBLIC "-//W3C//DTD SVG 1.1//EN"
 "http://www.w3.org/Graphics/SVG/1.1/DTD/svg11.dtd">
<!-- Generated by graphviz version 5.0.0 (20220707.1540)
 -->
<!-- Title: dependencies Pages: 1 -->
<svg width="308pt" height="174pt"
 viewBox="0.00 0.00 308.00 173.80" xmlns="http://www.w3.org/2000/svg" xmlns:xlink="http://www.w3.org/1999/xlink">
<g id="graph0" class="graph" transform="scale(1 1) rotate(0) translate(4 169.8)">
<title>dependencies</title>
<polygon fill="white" stroke="transparent" points="-4,4 -4,-169.8 304,-169.8 304,4 -4,4"/>
<text text-anchor="middle" x="150" y="-8.2" font-family="sans-serif" font-size="14.00">dependencies</text>
<g id="clust1" class="cluster">
<title>cluster_SharedModule</title>
<polygon fill="none" stroke="black" stroke-dasharray="1,5" points="8,-32.8 8,-157.8 292,-157.8 292,-32.8 8,-32.8"/>
</g>
<g id="clust4" class="cluster">
<title>cluster_SharedModule_exports</title>
<polygon fill="none" stroke="black" points="16,-97.8 16,-149.8 284,-149.8 284,-97.8 16,-97.8"/>
</g>
<!-- BsImportModule  -->
<g id="node1" class="node">
<title>BsImportModule </title>
<polygon fill="#fb8072" stroke="black" points="275.94,-141.8 160.06,-141.8 160.06,-105.8 275.94,-105.8 275.94,-141.8"/>
<text text-anchor="middle" x="218" y="-119.6" font-family="Times,serif" font-size="14.00">BsImportModule </text>
</g>
<!-- NgImportModule  -->
<g id="node2" class="node">
<title>NgImportModule </title>
<polygon fill="#fb8072" stroke="black" points="142.27,-141.8 23.73,-141.8 23.73,-105.8 142.27,-105.8 142.27,-141.8"/>
<text text-anchor="middle" x="83" y="-119.6" font-family="Times,serif" font-size="14.00">NgImportModule </text>
</g>
<!-- SharedModule -->
<g id="node3" class="node">
<title>SharedModule</title>
<polygon fill="#8dd3c7" stroke="black" points="199.43,-76.8 196.43,-80.8 175.43,-80.8 172.43,-76.8 100.57,-76.8 100.57,-40.8 199.43,-40.8 199.43,-76.8"/>
<text text-anchor="middle" x="150" y="-54.6" font-family="Times,serif" font-size="14.00">SharedModule</text>
</g>
<!-- SharedModule&#45;&gt;BsImportModule  -->
<g id="edge1" class="edge">
<title>SharedModule&#45;&gt;BsImportModule </title>
<path fill="none" stroke="black" stroke-dasharray="5,2" d="M179.62,-76.91C179.62,-76.91 179.62,-95.79 179.62,-95.79"/>
<polygon fill="black" stroke="black" points="176.12,-95.79 179.62,-105.79 183.12,-95.79 176.12,-95.79"/>
</g>
<!-- SharedModule&#45;&gt;NgImportModule  -->
<g id="edge2" class="edge">
<title>SharedModule&#45;&gt;NgImportModule </title>
<path fill="none" stroke="black" stroke-dasharray="5,2" d="M121.46,-76.91C121.46,-76.91 121.46,-95.79 121.46,-95.79"/>
<polygon fill="black" stroke="black" points="117.96,-95.79 121.46,-105.79 124.96,-95.79 117.96,-95.79"/>
</g>
</g>
</svg>
