<?xml version="1.0" encoding="UTF-8" standalone="no"?>
<!DOCTYPE svg PUBLIC "-//W3C//DTD SVG 1.1//EN"
 "http://www.w3.org/Graphics/SVG/1.1/DTD/svg11.dtd">
<!-- Generated by graphviz version 5.0.0 (20220707.1540)
 -->
<!-- Title: dependencies Pages: 1 -->
<svg width="360pt" height="247pt"
 viewBox="0.00 0.00 360.00 246.80" xmlns="http://www.w3.org/2000/svg" xmlns:xlink="http://www.w3.org/1999/xlink">
<g id="graph0" class="graph" transform="scale(1 1) rotate(0) translate(4 242.8)">
<title>dependencies</title>
<polygon fill="white" stroke="transparent" points="-4,4 -4,-242.8 356,-242.8 356,4 -4,4"/>
<text text-anchor="middle" x="176" y="-8.2" font-family="sans-serif" font-size="14.00">dependencies</text>
<g id="clust1" class="cluster">
<title>cluster_FeatInfoModule</title>
<polygon fill="none" stroke="black" stroke-dasharray="1,5" points="8,-32.8 8,-230.8 344,-230.8 344,-32.8 8,-32.8"/>
</g>
<g id="clust4" class="cluster">
<title>cluster_FeatInfoModule_imports</title>
<polygon fill="none" stroke="black" points="168,-40.8 168,-92.8 336,-92.8 336,-40.8 168,-40.8"/>
</g>
<g id="clust5" class="cluster">
<title>cluster_FeatInfoModule_exports</title>
<polygon fill="none" stroke="black" points="97,-170.8 97,-222.8 245,-222.8 245,-170.8 97,-170.8"/>
</g>
<g id="clust2" class="cluster">
<title>cluster_FeatInfoModule_declarations</title>
<polygon fill="none" stroke="black" points="16,-40.8 16,-92.8 160,-92.8 160,-40.8 16,-40.8"/>
</g>
<!-- FeatInfoComponent -->
<g id="node1" class="node">
<title>FeatInfoComponent</title>
<polygon fill="#ffffb3" stroke="black" points="152.26,-84.8 23.74,-84.8 23.74,-48.8 152.26,-48.8 152.26,-84.8"/>
<text text-anchor="middle" x="88" y="-62.6" font-family="Times,serif" font-size="14.00">FeatInfoComponent</text>
</g>
<!-- FeatInfoModule -->
<g id="node2" class="node">
<title>FeatInfoModule</title>
<polygon fill="#8dd3c7" stroke="black" points="224.48,-149.8 221.48,-153.8 200.48,-153.8 197.48,-149.8 117.52,-149.8 117.52,-113.8 224.48,-113.8 224.48,-149.8"/>
<text text-anchor="middle" x="171" y="-127.6" font-family="Times,serif" font-size="14.00">FeatInfoModule</text>
</g>
<!-- FeatInfoComponent&#45;&gt;FeatInfoModule -->
<g id="edge1" class="edge">
<title>FeatInfoComponent&#45;&gt;FeatInfoModule</title>
<path fill="none" stroke="black" d="M134.94,-84.91C134.94,-84.91 134.94,-103.79 134.94,-103.79"/>
<polygon fill="black" stroke="black" points="131.44,-103.79 134.94,-113.79 138.44,-103.79 131.44,-103.79"/>
</g>
<!-- FeatInfoComponent  -->
<g id="node4" class="node">
<title>FeatInfoComponent </title>
<polygon fill="#fb8072" stroke="black" points="237.26,-214.8 104.74,-214.8 104.74,-178.8 237.26,-178.8 237.26,-214.8"/>
<text text-anchor="middle" x="171" y="-192.6" font-family="Times,serif" font-size="14.00">FeatInfoComponent </text>
</g>
<!-- FeatInfoModule&#45;&gt;FeatInfoComponent  -->
<g id="edge3" class="edge">
<title>FeatInfoModule&#45;&gt;FeatInfoComponent </title>
<path fill="none" stroke="black" stroke-dasharray="5,2" d="M171,-149.91C171,-149.91 171,-168.79 171,-168.79"/>
<polygon fill="black" stroke="black" points="167.5,-168.79 171,-178.79 174.5,-168.79 167.5,-168.79"/>
</g>
<!-- FeatInfoRoutingModule -->
<g id="node3" class="node">
<title>FeatInfoRoutingModule</title>
<polygon fill="#8dd3c7" stroke="black" points="328.1,-84.8 325.1,-88.8 304.1,-88.8 301.1,-84.8 175.9,-84.8 175.9,-48.8 328.1,-48.8 328.1,-84.8"/>
<text text-anchor="middle" x="252" y="-62.6" font-family="Times,serif" font-size="14.00">FeatInfoRoutingModule</text>
</g>
<!-- FeatInfoRoutingModule&#45;&gt;FeatInfoModule -->
<g id="edge2" class="edge">
<title>FeatInfoRoutingModule&#45;&gt;FeatInfoModule</title>
<path fill="none" stroke="black" d="M200.22,-84.91C200.22,-84.91 200.22,-103.79 200.22,-103.79"/>
<polygon fill="black" stroke="black" points="196.72,-103.79 200.22,-113.79 203.72,-103.79 196.72,-103.79"/>
</g>
</g>
</svg>
