<?xml version="1.0" encoding="UTF-8" standalone="no"?>
<!DOCTYPE svg PUBLIC "-//W3C//DTD SVG 1.1//EN"
 "http://www.w3.org/Graphics/SVG/1.1/DTD/svg11.dtd">
<!-- Generated by graphviz version 5.0.0 (20220707.1540)
 -->
<!-- Title: dependencies Pages: 1 -->
<svg width="808pt" height="247pt"
 viewBox="0.00 0.00 808.00 246.80" xmlns="http://www.w3.org/2000/svg" xmlns:xlink="http://www.w3.org/1999/xlink">
<g id="graph0" class="graph" transform="scale(1 1) rotate(0) translate(4 242.8)">
<title>dependencies</title>
<polygon fill="white" stroke="transparent" points="-4,4 -4,-242.8 804,-242.8 804,4 -4,4"/>
<text text-anchor="middle" x="400" y="-8.2" font-family="sans-serif" font-size="14.00">dependencies</text>
<g id="clust1" class="cluster">
<title>cluster_ViewModule</title>
<polygon fill="none" stroke="black" stroke-dasharray="1,5" points="8,-32.8 8,-230.8 792,-230.8 792,-32.8 8,-32.8"/>
</g>
<g id="clust7" class="cluster">
<title>cluster_ViewModule_exports</title>
<polygon fill="none" stroke="black" points="169,-170.8 169,-222.8 673,-222.8 673,-170.8 169,-170.8"/>
</g>
<g id="clust6" class="cluster">
<title>cluster_ViewModule_imports</title>
<polygon fill="none" stroke="black" points="517,-40.8 517,-92.8 784,-92.8 784,-40.8 517,-40.8"/>
</g>
<g id="clust2" class="cluster">
<title>cluster_ViewModule_declarations</title>
<polygon fill="none" stroke="black" points="16,-40.8 16,-92.8 509,-92.8 509,-40.8 16,-40.8"/>
</g>
<!-- ViewHomeComponent -->
<g id="node1" class="node">
<title>ViewHomeComponent</title>
<polygon fill="#ffffb3" stroke="black" points="500.87,-84.8 355.13,-84.8 355.13,-48.8 500.87,-48.8 500.87,-84.8"/>
<text text-anchor="middle" x="428" y="-62.6" font-family="Times,serif" font-size="14.00">ViewHomeComponent</text>
</g>
<!-- ViewModule -->
<g id="node4" class="node">
<title>ViewModule</title>
<polygon fill="#8dd3c7" stroke="black" points="472.88,-149.8 469.88,-153.8 448.88,-153.8 445.88,-149.8 383.12,-149.8 383.12,-113.8 472.88,-113.8 472.88,-149.8"/>
<text text-anchor="middle" x="428" y="-127.6" font-family="Times,serif" font-size="14.00">ViewModule</text>
</g>
<!-- ViewHomeComponent&#45;&gt;ViewModule -->
<g id="edge1" class="edge">
<title>ViewHomeComponent&#45;&gt;ViewModule</title>
<path fill="none" stroke="black" d="M428,-84.91C428,-84.91 428,-103.79 428,-103.79"/>
<polygon fill="black" stroke="black" points="424.5,-103.79 428,-113.79 431.5,-103.79 424.5,-103.79"/>
</g>
<!-- ViewInfoComponent -->
<g id="node2" class="node">
<title>ViewInfoComponent</title>
<polygon fill="#ffffb3" stroke="black" points="337.48,-84.8 202.52,-84.8 202.52,-48.8 337.48,-48.8 337.48,-84.8"/>
<text text-anchor="middle" x="270" y="-62.6" font-family="Times,serif" font-size="14.00">ViewInfoComponent</text>
</g>
<!-- ViewInfoComponent&#45;&gt;ViewModule -->
<g id="edge2" class="edge">
<title>ViewInfoComponent&#45;&gt;ViewModule</title>
<path fill="none" stroke="black" d="M292.5,-84.83C292.5,-101.2 292.5,-122.8 292.5,-122.8 292.5,-122.8 372.88,-122.8 372.88,-122.8"/>
<polygon fill="black" stroke="black" points="372.88,-126.3 382.88,-122.8 372.88,-119.3 372.88,-126.3"/>
</g>
<!-- ViewMessageComponent -->
<g id="node3" class="node">
<title>ViewMessageComponent</title>
<polygon fill="#ffffb3" stroke="black" points="184.14,-84.8 23.86,-84.8 23.86,-48.8 184.14,-48.8 184.14,-84.8"/>
<text text-anchor="middle" x="104" y="-62.6" font-family="Times,serif" font-size="14.00">ViewMessageComponent</text>
</g>
<!-- ViewMessageComponent&#45;&gt;ViewModule -->
<g id="edge3" class="edge">
<title>ViewMessageComponent&#45;&gt;ViewModule</title>
<path fill="none" stroke="black" d="M180.62,-84.91C180.62,-104.14 180.62,-131.8 180.62,-131.8 180.62,-131.8 372.92,-131.8 372.92,-131.8"/>
<polygon fill="black" stroke="black" points="372.92,-135.3 382.92,-131.8 372.92,-128.3 372.92,-135.3"/>
</g>
<!-- ViewHomeComponent  -->
<g id="node7" class="node">
<title>ViewHomeComponent </title>
<polygon fill="#fb8072" stroke="black" points="664.87,-214.8 515.13,-214.8 515.13,-178.8 664.87,-178.8 664.87,-214.8"/>
<text text-anchor="middle" x="590" y="-192.6" font-family="Times,serif" font-size="14.00">ViewHomeComponent </text>
</g>
<!-- ViewModule&#45;&gt;ViewHomeComponent  -->
<g id="edge6" class="edge">
<title>ViewModule&#45;&gt;ViewHomeComponent </title>
<path fill="none" stroke="black" stroke-dasharray="5,2" d="M472.88,-140.8C496.21,-140.8 519.91,-140.8 519.91,-140.8 519.91,-140.8 519.91,-168.77 519.91,-168.77"/>
<polygon fill="black" stroke="black" points="516.41,-168.77 519.91,-178.77 523.41,-168.77 516.41,-168.77"/>
</g>
<!-- ViewInfoComponent  -->
<g id="node8" class="node">
<title>ViewInfoComponent </title>
<polygon fill="#fb8072" stroke="black" points="497.48,-214.8 358.52,-214.8 358.52,-178.8 497.48,-178.8 497.48,-214.8"/>
<text text-anchor="middle" x="428" y="-192.6" font-family="Times,serif" font-size="14.00">ViewInfoComponent </text>
</g>
<!-- ViewModule&#45;&gt;ViewInfoComponent  -->
<g id="edge7" class="edge">
<title>ViewModule&#45;&gt;ViewInfoComponent </title>
<path fill="none" stroke="black" stroke-dasharray="5,2" d="M428,-149.91C428,-149.91 428,-168.79 428,-168.79"/>
<polygon fill="black" stroke="black" points="424.5,-168.79 428,-178.79 431.5,-168.79 424.5,-168.79"/>
</g>
<!-- ViewMessageComponent  -->
<g id="node9" class="node">
<title>ViewMessageComponent </title>
<polygon fill="#fb8072" stroke="black" points="341.14,-214.8 176.86,-214.8 176.86,-178.8 341.14,-178.8 341.14,-214.8"/>
<text text-anchor="middle" x="259" y="-192.6" font-family="Times,serif" font-size="14.00">ViewMessageComponent </text>
</g>
<!-- ViewModule&#45;&gt;ViewMessageComponent  -->
<g id="edge8" class="edge">
<title>ViewModule&#45;&gt;ViewMessageComponent </title>
<path fill="none" stroke="black" stroke-dasharray="5,2" d="M382.92,-140.8C329.46,-140.8 247.5,-140.8 247.5,-140.8 247.5,-140.8 247.5,-168.77 247.5,-168.77"/>
<polygon fill="black" stroke="black" points="244,-168.77 247.5,-178.77 251,-168.77 244,-168.77"/>
</g>
<!-- SharedModule -->
<g id="node5" class="node">
<title>SharedModule</title>
<polygon fill="#8dd3c7" stroke="black" points="776.43,-84.8 773.43,-88.8 752.43,-88.8 749.43,-84.8 677.57,-84.8 677.57,-48.8 776.43,-48.8 776.43,-84.8"/>
<text text-anchor="middle" x="727" y="-62.6" font-family="Times,serif" font-size="14.00">SharedModule</text>
</g>
<!-- SharedModule&#45;&gt;ViewModule -->
<g id="edge4" class="edge">
<title>SharedModule&#45;&gt;ViewModule</title>
<path fill="none" stroke="black" d="M727,-84.91C727,-104.14 727,-131.8 727,-131.8 727,-131.8 483.09,-131.8 483.09,-131.8"/>
<polygon fill="black" stroke="black" points="483.09,-128.3 473.09,-131.8 483.09,-135.3 483.09,-128.3"/>
</g>
<!-- ViewRoutingModule -->
<g id="node6" class="node">
<title>ViewRoutingModule</title>
<polygon fill="#8dd3c7" stroke="black" points="659.49,-84.8 656.49,-88.8 635.49,-88.8 632.49,-84.8 524.51,-84.8 524.51,-48.8 659.49,-48.8 659.49,-84.8"/>
<text text-anchor="middle" x="592" y="-62.6" font-family="Times,serif" font-size="14.00">ViewRoutingModule</text>
</g>
<!-- ViewRoutingModule&#45;&gt;ViewModule -->
<g id="edge5" class="edge">
<title>ViewRoutingModule&#45;&gt;ViewModule</title>
<path fill="none" stroke="black" d="M592,-84.83C592,-101.2 592,-122.8 592,-122.8 592,-122.8 483.25,-122.8 483.25,-122.8"/>
<polygon fill="black" stroke="black" points="483.25,-119.3 473.25,-122.8 483.25,-126.3 483.25,-119.3"/>
</g>
</g>
</svg>
