<?xml version="1.0" encoding="UTF-8" standalone="no"?>
<!DOCTYPE svg PUBLIC "-//W3C//DTD SVG 1.1//EN"
 "http://www.w3.org/Graphics/SVG/1.1/DTD/svg11.dtd">
<!-- Generated by graphviz version 5.0.0 (20220707.1540)
 -->
<!-- Title: dependencies Pages: 1 -->
<svg width="307pt" height="174pt"
 viewBox="0.00 0.00 307.00 173.80" xmlns="http://www.w3.org/2000/svg" xmlns:xlink="http://www.w3.org/1999/xlink">
<g id="graph0" class="graph" transform="scale(1 1) rotate(0) translate(4 169.8)">
<title>dependencies</title>
<polygon fill="white" stroke="transparent" points="-4,4 -4,-169.8 303,-169.8 303,4 -4,4"/>
<text text-anchor="middle" x="149.5" y="-8.2" font-family="sans-serif" font-size="14.00">dependencies</text>
<g id="clust1" class="cluster">
<title>cluster_ViewModule</title>
<polygon fill="none" stroke="black" stroke-dasharray="1,5" points="8,-32.8 8,-157.8 291,-157.8 291,-32.8 8,-32.8"/>
</g>
<g id="clust3" class="cluster">
<title>cluster_ViewModule_imports</title>
<polygon fill="none" stroke="black" points="16,-40.8 16,-92.8 283,-92.8 283,-40.8 16,-40.8"/>
</g>
<!-- SharedModule -->
<g id="node1" class="node">
<title>SharedModule</title>
<polygon fill="#8dd3c7" stroke="black" points="275.43,-84.8 272.43,-88.8 251.43,-88.8 248.43,-84.8 176.57,-84.8 176.57,-48.8 275.43,-48.8 275.43,-84.8"/>
<text text-anchor="middle" x="226" y="-62.6" font-family="Times,serif" font-size="14.00">SharedModule</text>
</g>
<!-- ViewModule -->
<g id="node3" class="node">
<title>ViewModule</title>
<polygon fill="#8dd3c7" stroke="black" points="202.88,-149.8 199.88,-153.8 178.88,-153.8 175.88,-149.8 113.12,-149.8 113.12,-113.8 202.88,-113.8 202.88,-149.8"/>
<text text-anchor="middle" x="158" y="-127.6" font-family="Times,serif" font-size="14.00">ViewModule</text>
</g>
<!-- SharedModule&#45;&gt;ViewModule -->
<g id="edge1" class="edge">
<title>SharedModule&#45;&gt;ViewModule</title>
<path fill="none" stroke="black" d="M189.86,-84.91C189.86,-84.91 189.86,-103.79 189.86,-103.79"/>
<polygon fill="black" stroke="black" points="186.36,-103.79 189.86,-113.79 193.36,-103.79 186.36,-103.79"/>
</g>
<!-- ViewRoutingModule -->
<g id="node2" class="node">
<title>ViewRoutingModule</title>
<polygon fill="#8dd3c7" stroke="black" points="158.49,-84.8 155.49,-88.8 134.49,-88.8 131.49,-84.8 23.51,-84.8 23.51,-48.8 158.49,-48.8 158.49,-84.8"/>
<text text-anchor="middle" x="91" y="-62.6" font-family="Times,serif" font-size="14.00">ViewRoutingModule</text>
</g>
<!-- ViewRoutingModule&#45;&gt;ViewModule -->
<g id="edge2" class="edge">
<title>ViewRoutingModule&#45;&gt;ViewModule</title>
<path fill="none" stroke="black" d="M135.78,-84.91C135.78,-84.91 135.78,-103.79 135.78,-103.79"/>
<polygon fill="black" stroke="black" points="132.28,-103.79 135.78,-113.79 139.28,-103.79 132.28,-103.79"/>
</g>
</g>
</svg>
