<?xml version="1.0" encoding="UTF-8" standalone="no"?>
<!DOCTYPE svg PUBLIC "-//W3C//DTD SVG 1.1//EN"
 "http://www.w3.org/Graphics/SVG/1.1/DTD/svg11.dtd">
<!-- Generated by graphviz version 5.0.0 (20220707.1540)
 -->
<!-- Title: dependencies Pages: 1 -->
<svg width="808pt" height="247pt"
 viewBox="0.00 0.00 808.00 246.80" xmlns="http://www.w3.org/2000/svg" xmlns:xlink="http://www.w3.org/1999/xlink">
<g id="graph0" class="graph" transform="scale(1 1) rotate(0) translate(4 242.8)">
<title>dependencies</title>
<polygon fill="white" stroke="transparent" points="-4,4 -4,-242.8 804,-242.8 804,4 -4,4"/>
<text text-anchor="middle" x="400" y="-8.2" font-family="sans-serif" font-size="14.00">dependencies</text>
<g id="clust1" class="cluster">
<title>cluster_ViewModule</title>
<polygon fill="none" stroke="black" stroke-dasharray="1,5" points="8,-32.8 8,-230.8 792,-230.8 792,-32.8 8,-32.8"/>
</g>
<g id="clust2" class="cluster">
<title>cluster_ViewModule_declarations</title>
<polygon fill="none" stroke="black" points="291,-40.8 291,-92.8 784,-92.8 784,-40.8 291,-40.8"/>
</g>
<g id="clust7" class="cluster">
<title>cluster_ViewModule_exports</title>
<polygon fill="none" stroke="black" points="120,-170.8 120,-222.8 624,-222.8 624,-170.8 120,-170.8"/>
</g>
<g id="clust6" class="cluster">
<title>cluster_ViewModule_imports</title>
<polygon fill="none" stroke="black" points="16,-40.8 16,-92.8 283,-92.8 283,-40.8 16,-40.8"/>
</g>
<!-- ViewHomeComponent -->
<g id="node1" class="node">
<title>ViewHomeComponent</title>
<polygon fill="#ffffb3" stroke="black" points="775.87,-84.8 630.13,-84.8 630.13,-48.8 775.87,-48.8 775.87,-84.8"/>
<text text-anchor="middle" x="703" y="-62.6" font-family="Times,serif" font-size="14.00">ViewHomeComponent</text>
</g>
<!-- ViewModule -->
<g id="node4" class="node">
<title>ViewModule</title>
<polygon fill="#8dd3c7" stroke="black" points="423.88,-149.8 420.88,-153.8 399.88,-153.8 396.88,-149.8 334.12,-149.8 334.12,-113.8 423.88,-113.8 423.88,-149.8"/>
<text text-anchor="middle" x="379" y="-127.6" font-family="Times,serif" font-size="14.00">ViewModule</text>
</g>
<!-- ViewHomeComponent&#45;&gt;ViewModule -->
<g id="edge1" class="edge">
<title>ViewHomeComponent&#45;&gt;ViewModule</title>
<path fill="none" stroke="black" d="M703,-84.91C703,-104.14 703,-131.8 703,-131.8 703,-131.8 434.05,-131.8 434.05,-131.8"/>
<polygon fill="black" stroke="black" points="434.05,-128.3 424.05,-131.8 434.05,-135.3 434.05,-128.3"/>
</g>
<!-- ViewInfoComponent -->
<g id="node2" class="node">
<title>ViewInfoComponent</title>
<polygon fill="#ffffb3" stroke="black" points="612.48,-84.8 477.52,-84.8 477.52,-48.8 612.48,-48.8 612.48,-84.8"/>
<text text-anchor="middle" x="545" y="-62.6" font-family="Times,serif" font-size="14.00">ViewInfoComponent</text>
</g>
<!-- ViewInfoComponent&#45;&gt;ViewModule -->
<g id="edge2" class="edge">
<title>ViewInfoComponent&#45;&gt;ViewModule</title>
<path fill="none" stroke="black" d="M545,-84.83C545,-101.2 545,-122.8 545,-122.8 545,-122.8 433.92,-122.8 433.92,-122.8"/>
<polygon fill="black" stroke="black" points="433.92,-119.3 423.92,-122.8 433.92,-126.3 433.92,-119.3"/>
</g>
<!-- ViewMessageComponent -->
<g id="node3" class="node">
<title>ViewMessageComponent</title>
<polygon fill="#ffffb3" stroke="black" points="459.14,-84.8 298.86,-84.8 298.86,-48.8 459.14,-48.8 459.14,-84.8"/>
<text text-anchor="middle" x="379" y="-62.6" font-family="Times,serif" font-size="14.00">ViewMessageComponent</text>
</g>
<!-- ViewMessageComponent&#45;&gt;ViewModule -->
<g id="edge3" class="edge">
<title>ViewMessageComponent&#45;&gt;ViewModule</title>
<path fill="none" stroke="black" d="M379,-84.91C379,-84.91 379,-103.79 379,-103.79"/>
<polygon fill="black" stroke="black" points="375.5,-103.79 379,-113.79 382.5,-103.79 375.5,-103.79"/>
</g>
<!-- ViewHomeComponent  -->
<g id="node7" class="node">
<title>ViewHomeComponent </title>
<polygon fill="#fb8072" stroke="black" points="615.87,-214.8 466.13,-214.8 466.13,-178.8 615.87,-178.8 615.87,-214.8"/>
<text text-anchor="middle" x="541" y="-192.6" font-family="Times,serif" font-size="14.00">ViewHomeComponent </text>
</g>
<!-- ViewModule&#45;&gt;ViewHomeComponent  -->
<g id="edge6" class="edge">
<title>ViewModule&#45;&gt;ViewHomeComponent </title>
<path fill="none" stroke="black" stroke-dasharray="5,2" d="M424.1,-140.8C447.77,-140.8 471.91,-140.8 471.91,-140.8 471.91,-140.8 471.91,-168.77 471.91,-168.77"/>
<polygon fill="black" stroke="black" points="468.41,-168.77 471.91,-178.77 475.41,-168.77 468.41,-168.77"/>
</g>
<!-- ViewInfoComponent  -->
<g id="node8" class="node">
<title>ViewInfoComponent </title>
<polygon fill="#fb8072" stroke="black" points="448.48,-214.8 309.52,-214.8 309.52,-178.8 448.48,-178.8 448.48,-214.8"/>
<text text-anchor="middle" x="379" y="-192.6" font-family="Times,serif" font-size="14.00">ViewInfoComponent </text>
</g>
<!-- ViewModule&#45;&gt;ViewInfoComponent  -->
<g id="edge7" class="edge">
<title>ViewModule&#45;&gt;ViewInfoComponent </title>
<path fill="none" stroke="black" stroke-dasharray="5,2" d="M379,-149.91C379,-149.91 379,-168.79 379,-168.79"/>
<polygon fill="black" stroke="black" points="375.5,-168.79 379,-178.79 382.5,-168.79 375.5,-168.79"/>
</g>
<!-- ViewMessageComponent  -->
<g id="node9" class="node">
<title>ViewMessageComponent </title>
<polygon fill="#fb8072" stroke="black" points="292.14,-214.8 127.86,-214.8 127.86,-178.8 292.14,-178.8 292.14,-214.8"/>
<text text-anchor="middle" x="210" y="-192.6" font-family="Times,serif" font-size="14.00">ViewMessageComponent </text>
</g>
<!-- ViewModule&#45;&gt;ViewMessageComponent  -->
<g id="edge8" class="edge">
<title>ViewModule&#45;&gt;ViewMessageComponent </title>
<path fill="none" stroke="black" stroke-dasharray="5,2" d="M334.11,-140.8C309.38,-140.8 283.64,-140.8 283.64,-140.8 283.64,-140.8 283.64,-168.77 283.64,-168.77"/>
<polygon fill="black" stroke="black" points="280.14,-168.77 283.64,-178.77 287.14,-168.77 280.14,-168.77"/>
</g>
<!-- SharedModule -->
<g id="node5" class="node">
<title>SharedModule</title>
<polygon fill="#8dd3c7" stroke="black" points="275.43,-84.8 272.43,-88.8 251.43,-88.8 248.43,-84.8 176.57,-84.8 176.57,-48.8 275.43,-48.8 275.43,-84.8"/>
<text text-anchor="middle" x="226" y="-62.6" font-family="Times,serif" font-size="14.00">SharedModule</text>
</g>
<!-- SharedModule&#45;&gt;ViewModule -->
<g id="edge4" class="edge">
<title>SharedModule&#45;&gt;ViewModule</title>
<path fill="none" stroke="black" d="M226,-84.83C226,-101.2 226,-122.8 226,-122.8 226,-122.8 323.92,-122.8 323.92,-122.8"/>
<polygon fill="black" stroke="black" points="323.92,-126.3 333.92,-122.8 323.92,-119.3 323.92,-126.3"/>
</g>
<!-- ViewRoutingModule -->
<g id="node6" class="node">
<title>ViewRoutingModule</title>
<polygon fill="#8dd3c7" stroke="black" points="158.49,-84.8 155.49,-88.8 134.49,-88.8 131.49,-84.8 23.51,-84.8 23.51,-48.8 158.49,-48.8 158.49,-84.8"/>
<text text-anchor="middle" x="91" y="-62.6" font-family="Times,serif" font-size="14.00">ViewRoutingModule</text>
</g>
<!-- ViewRoutingModule&#45;&gt;ViewModule -->
<g id="edge5" class="edge">
<title>ViewRoutingModule&#45;&gt;ViewModule</title>
<path fill="none" stroke="black" d="M143.21,-84.91C143.21,-104.14 143.21,-131.8 143.21,-131.8 143.21,-131.8 324.1,-131.8 324.1,-131.8"/>
<polygon fill="black" stroke="black" points="324.1,-135.3 334.1,-131.8 324.1,-128.3 324.1,-135.3"/>
</g>
</g>
</svg>
