<?xml version="1.0" encoding="UTF-8" standalone="no"?>
<!DOCTYPE svg PUBLIC "-//W3C//DTD SVG 1.1//EN"
 "http://www.w3.org/Graphics/SVG/1.1/DTD/svg11.dtd">
<!-- Generated by graphviz version 5.0.0 (20220707.1540)
 -->
<!-- Title: dependencies Pages: 1 -->
<svg width="991pt" height="247pt"
 viewBox="0.00 0.00 991.00 246.80" xmlns="http://www.w3.org/2000/svg" xmlns:xlink="http://www.w3.org/1999/xlink">
<g id="graph0" class="graph" transform="scale(1 1) rotate(0) translate(4 242.8)">
<title>dependencies</title>
<polygon fill="white" stroke="transparent" points="-4,4 -4,-242.8 987,-242.8 987,4 -4,4"/>
<text text-anchor="middle" x="491.5" y="-8.2" font-family="sans-serif" font-size="14.00">dependencies</text>
<g id="clust1" class="cluster">
<title>cluster_ViewModule</title>
<polygon fill="none" stroke="black" stroke-dasharray="1,5" points="8,-32.8 8,-230.8 975,-230.8 975,-32.8 8,-32.8"/>
</g>
<g id="clust2" class="cluster">
<title>cluster_ViewModule_declarations</title>
<polygon fill="none" stroke="black" points="291,-40.8 291,-92.8 967,-92.8 967,-40.8 291,-40.8"/>
</g>
<g id="clust8" class="cluster">
<title>cluster_ViewModule_exports</title>
<polygon fill="none" stroke="black" points="212,-170.8 212,-222.8 716,-222.8 716,-170.8 212,-170.8"/>
</g>
<g id="clust7" class="cluster">
<title>cluster_ViewModule_imports</title>
<polygon fill="none" stroke="black" points="16,-40.8 16,-92.8 283,-92.8 283,-40.8 16,-40.8"/>
</g>
<!-- ViewHomeComponent -->
<g id="node1" class="node">
<title>ViewHomeComponent</title>
<polygon fill="#ffffb3" stroke="black" points="958.87,-84.8 813.13,-84.8 813.13,-48.8 958.87,-48.8 958.87,-84.8"/>
<text text-anchor="middle" x="886" y="-62.6" font-family="Times,serif" font-size="14.00">ViewHomeComponent</text>
</g>
<!-- ViewModule -->
<g id="node5" class="node">
<title>ViewModule</title>
<polygon fill="#8dd3c7" stroke="black" points="515.88,-149.8 512.88,-153.8 491.88,-153.8 488.88,-149.8 426.12,-149.8 426.12,-113.8 515.88,-113.8 515.88,-149.8"/>
<text text-anchor="middle" x="471" y="-127.6" font-family="Times,serif" font-size="14.00">ViewModule</text>
</g>
<!-- ViewHomeComponent&#45;&gt;ViewModule -->
<g id="edge1" class="edge">
<title>ViewHomeComponent&#45;&gt;ViewModule</title>
<path fill="none" stroke="black" d="M886,-84.91C886,-104.14 886,-131.8 886,-131.8 886,-131.8 526.2,-131.8 526.2,-131.8"/>
<polygon fill="black" stroke="black" points="526.2,-128.3 516.2,-131.8 526.2,-135.3 526.2,-128.3"/>
</g>
<!-- ViewInfoComponent -->
<g id="node2" class="node">
<title>ViewInfoComponent</title>
<polygon fill="#ffffb3" stroke="black" points="795.48,-84.8 660.52,-84.8 660.52,-48.8 795.48,-48.8 795.48,-84.8"/>
<text text-anchor="middle" x="728" y="-62.6" font-family="Times,serif" font-size="14.00">ViewInfoComponent</text>
</g>
<!-- ViewInfoComponent&#45;&gt;ViewModule -->
<g id="edge2" class="edge">
<title>ViewInfoComponent&#45;&gt;ViewModule</title>
<path fill="none" stroke="black" d="M684.1,-84.83C684.1,-101.2 684.1,-122.8 684.1,-122.8 684.1,-122.8 525.93,-122.8 525.93,-122.8"/>
<polygon fill="black" stroke="black" points="525.93,-119.3 515.93,-122.8 525.93,-126.3 525.93,-119.3"/>
</g>
<!-- ViewMessageComponent -->
<g id="node3" class="node">
<title>ViewMessageComponent</title>
<polygon fill="#ffffb3" stroke="black" points="642.14,-84.8 481.86,-84.8 481.86,-48.8 642.14,-48.8 642.14,-84.8"/>
<text text-anchor="middle" x="562" y="-62.6" font-family="Times,serif" font-size="14.00">ViewMessageComponent</text>
</g>
<!-- ViewMessageComponent&#45;&gt;ViewModule -->
<g id="edge3" class="edge">
<title>ViewMessageComponent&#45;&gt;ViewModule</title>
<path fill="none" stroke="black" d="M498.81,-84.91C498.81,-84.91 498.81,-103.79 498.81,-103.79"/>
<polygon fill="black" stroke="black" points="495.31,-103.79 498.81,-113.79 502.31,-103.79 495.31,-103.79"/>
</g>
<!-- ViewTemplateComponent -->
<g id="node4" class="node">
<title>ViewTemplateComponent</title>
<polygon fill="#ffffb3" stroke="black" points="463.02,-84.8 298.98,-84.8 298.98,-48.8 463.02,-48.8 463.02,-84.8"/>
<text text-anchor="middle" x="381" y="-62.6" font-family="Times,serif" font-size="14.00">ViewTemplateComponent</text>
</g>
<!-- ViewTemplateComponent&#45;&gt;ViewModule -->
<g id="edge4" class="edge">
<title>ViewTemplateComponent&#45;&gt;ViewModule</title>
<path fill="none" stroke="black" d="M444.66,-84.91C444.66,-84.91 444.66,-103.79 444.66,-103.79"/>
<polygon fill="black" stroke="black" points="441.16,-103.79 444.66,-113.79 448.16,-103.79 441.16,-103.79"/>
</g>
<!-- ViewHomeComponent  -->
<g id="node8" class="node">
<title>ViewHomeComponent </title>
<polygon fill="#fb8072" stroke="black" points="707.87,-214.8 558.13,-214.8 558.13,-178.8 707.87,-178.8 707.87,-214.8"/>
<text text-anchor="middle" x="633" y="-192.6" font-family="Times,serif" font-size="14.00">ViewHomeComponent </text>
</g>
<!-- ViewModule&#45;&gt;ViewHomeComponent  -->
<g id="edge7" class="edge">
<title>ViewModule&#45;&gt;ViewHomeComponent </title>
<path fill="none" stroke="black" stroke-dasharray="5,2" d="M516.23,-140.8C553.52,-140.8 600.32,-140.8 600.32,-140.8 600.32,-140.8 600.32,-168.77 600.32,-168.77"/>
<polygon fill="black" stroke="black" points="596.82,-168.77 600.32,-178.77 603.82,-168.77 596.82,-168.77"/>
</g>
<!-- ViewInfoComponent  -->
<g id="node9" class="node">
<title>ViewInfoComponent </title>
<polygon fill="#fb8072" stroke="black" points="540.48,-214.8 401.52,-214.8 401.52,-178.8 540.48,-178.8 540.48,-214.8"/>
<text text-anchor="middle" x="471" y="-192.6" font-family="Times,serif" font-size="14.00">ViewInfoComponent </text>
</g>
<!-- ViewModule&#45;&gt;ViewInfoComponent  -->
<g id="edge8" class="edge">
<title>ViewModule&#45;&gt;ViewInfoComponent </title>
<path fill="none" stroke="black" stroke-dasharray="5,2" d="M471,-149.91C471,-149.91 471,-168.79 471,-168.79"/>
<polygon fill="black" stroke="black" points="467.5,-168.79 471,-178.79 474.5,-168.79 467.5,-168.79"/>
</g>
<!-- ViewMessageComponent  -->
<g id="node10" class="node">
<title>ViewMessageComponent </title>
<polygon fill="#fb8072" stroke="black" points="384.14,-214.8 219.86,-214.8 219.86,-178.8 384.14,-178.8 384.14,-214.8"/>
<text text-anchor="middle" x="302" y="-192.6" font-family="Times,serif" font-size="14.00">ViewMessageComponent </text>
</g>
<!-- ViewModule&#45;&gt;ViewMessageComponent  -->
<g id="edge9" class="edge">
<title>ViewModule&#45;&gt;ViewMessageComponent </title>
<path fill="none" stroke="black" stroke-dasharray="5,2" d="M426.04,-140.8C388.61,-140.8 341.41,-140.8 341.41,-140.8 341.41,-140.8 341.41,-168.77 341.41,-168.77"/>
<polygon fill="black" stroke="black" points="337.91,-168.77 341.41,-178.77 344.91,-168.77 337.91,-168.77"/>
</g>
<!-- SharedModule -->
<g id="node6" class="node">
<title>SharedModule</title>
<polygon fill="#8dd3c7" stroke="black" points="275.43,-84.8 272.43,-88.8 251.43,-88.8 248.43,-84.8 176.57,-84.8 176.57,-48.8 275.43,-48.8 275.43,-84.8"/>
<text text-anchor="middle" x="226" y="-62.6" font-family="Times,serif" font-size="14.00">SharedModule</text>
</g>
<!-- SharedModule&#45;&gt;ViewModule -->
<g id="edge5" class="edge">
<title>SharedModule&#45;&gt;ViewModule</title>
<path fill="none" stroke="black" d="M247.57,-84.83C247.57,-101.2 247.57,-122.8 247.57,-122.8 247.57,-122.8 416.05,-122.8 416.05,-122.8"/>
<polygon fill="black" stroke="black" points="416.05,-126.3 426.05,-122.8 416.05,-119.3 416.05,-126.3"/>
</g>
<!-- ViewRoutingModule -->
<g id="node7" class="node">
<title>ViewRoutingModule</title>
<polygon fill="#8dd3c7" stroke="black" points="158.49,-84.8 155.49,-88.8 134.49,-88.8 131.49,-84.8 23.51,-84.8 23.51,-48.8 158.49,-48.8 158.49,-84.8"/>
<text text-anchor="middle" x="91" y="-62.6" font-family="Times,serif" font-size="14.00">ViewRoutingModule</text>
</g>
<!-- ViewRoutingModule&#45;&gt;ViewModule -->
<g id="edge6" class="edge">
<title>ViewRoutingModule&#45;&gt;ViewModule</title>
<path fill="none" stroke="black" d="M91,-84.91C91,-104.14 91,-131.8 91,-131.8 91,-131.8 415.92,-131.8 415.92,-131.8"/>
<polygon fill="black" stroke="black" points="415.92,-135.3 425.92,-131.8 415.92,-128.3 415.92,-135.3"/>
</g>
</g>
</svg>
