<?xml version="1.0" encoding="UTF-8" standalone="no"?>
<!DOCTYPE svg PUBLIC "-//W3C//DTD SVG 1.1//EN"
 "http://www.w3.org/Graphics/SVG/1.1/DTD/svg11.dtd">
<!-- Generated by graphviz version 5.0.0 (20220707.1540)
 -->
<!-- Title: dependencies Pages: 1 -->
<svg width="600pt" height="247pt"
 viewBox="0.00 0.00 600.00 246.80" xmlns="http://www.w3.org/2000/svg" xmlns:xlink="http://www.w3.org/1999/xlink">
<g id="graph0" class="graph" transform="scale(1 1) rotate(0) translate(4 242.8)">
<title>dependencies</title>
<polygon fill="white" stroke="transparent" points="-4,4 -4,-242.8 596,-242.8 596,4 -4,4"/>
<text text-anchor="middle" x="296" y="-8.2" font-family="sans-serif" font-size="14.00">dependencies</text>
<g id="clust1" class="cluster">
<title>cluster_FeatAuthModule</title>
<polygon fill="none" stroke="black" stroke-dasharray="1,5" points="8,-32.8 8,-230.8 584,-230.8 584,-32.8 8,-32.8"/>
</g>
<g id="clust5" class="cluster">
<title>cluster_FeatAuthModule_imports</title>
<polygon fill="none" stroke="black" points="404,-40.8 404,-92.8 576,-92.8 576,-40.8 404,-40.8"/>
</g>
<g id="clust2" class="cluster">
<title>cluster_FeatAuthModule_declarations</title>
<polygon fill="none" stroke="black" points="16,-40.8 16,-92.8 396,-92.8 396,-40.8 16,-40.8"/>
</g>
<g id="clust6" class="cluster">
<title>cluster_FeatAuthModule_exports</title>
<polygon fill="none" stroke="black" points="102,-170.8 102,-222.8 490,-222.8 490,-170.8 102,-170.8"/>
</g>
<!-- FeatAuthLoginComponent -->
<g id="node1" class="node">
<title>FeatAuthLoginComponent</title>
<polygon fill="#ffffb3" stroke="black" points="388.38,-84.8 221.62,-84.8 221.62,-48.8 388.38,-48.8 388.38,-84.8"/>
<text text-anchor="middle" x="305" y="-62.6" font-family="Times,serif" font-size="14.00">FeatAuthLoginComponent</text>
</g>
<!-- FeatAuthModule -->
<g id="node3" class="node">
<title>FeatAuthModule</title>
<polygon fill="#8dd3c7" stroke="black" points="360.66,-149.8 357.66,-153.8 336.66,-153.8 333.66,-149.8 249.34,-149.8 249.34,-113.8 360.66,-113.8 360.66,-149.8"/>
<text text-anchor="middle" x="305" y="-127.6" font-family="Times,serif" font-size="14.00">FeatAuthModule</text>
</g>
<!-- FeatAuthLoginComponent&#45;&gt;FeatAuthModule -->
<g id="edge1" class="edge">
<title>FeatAuthLoginComponent&#45;&gt;FeatAuthModule</title>
<path fill="none" stroke="black" d="M305,-84.91C305,-84.91 305,-103.79 305,-103.79"/>
<polygon fill="black" stroke="black" points="301.5,-103.79 305,-113.79 308.5,-103.79 301.5,-103.79"/>
</g>
<!-- FeatAuthRegisterComponent -->
<g id="node2" class="node">
<title>FeatAuthRegisterComponent</title>
<polygon fill="#ffffb3" stroke="black" points="204.09,-84.8 23.91,-84.8 23.91,-48.8 204.09,-48.8 204.09,-84.8"/>
<text text-anchor="middle" x="114" y="-62.6" font-family="Times,serif" font-size="14.00">FeatAuthRegisterComponent</text>
</g>
<!-- FeatAuthRegisterComponent&#45;&gt;FeatAuthModule -->
<g id="edge2" class="edge">
<title>FeatAuthRegisterComponent&#45;&gt;FeatAuthModule</title>
<path fill="none" stroke="black" d="M157.12,-84.91C157.12,-104.14 157.12,-131.8 157.12,-131.8 157.12,-131.8 239.09,-131.8 239.09,-131.8"/>
<polygon fill="black" stroke="black" points="239.09,-135.3 249.09,-131.8 239.09,-128.3 239.09,-135.3"/>
</g>
<!-- FeatAuthLoginComponent  -->
<g id="node5" class="node">
<title>FeatAuthLoginComponent </title>
<polygon fill="#fb8072" stroke="black" points="482.38,-214.8 311.62,-214.8 311.62,-178.8 482.38,-178.8 482.38,-214.8"/>
<text text-anchor="middle" x="397" y="-192.6" font-family="Times,serif" font-size="14.00">FeatAuthLoginComponent </text>
</g>
<!-- FeatAuthModule&#45;&gt;FeatAuthLoginComponent  -->
<g id="edge4" class="edge">
<title>FeatAuthModule&#45;&gt;FeatAuthLoginComponent </title>
<path fill="none" stroke="black" stroke-dasharray="5,2" d="M336.32,-149.91C336.32,-149.91 336.32,-168.79 336.32,-168.79"/>
<polygon fill="black" stroke="black" points="332.82,-168.79 336.32,-178.79 339.82,-168.79 332.82,-168.79"/>
</g>
<!-- FeatAuthRegisterComponent  -->
<g id="node6" class="node">
<title>FeatAuthRegisterComponent </title>
<polygon fill="#fb8072" stroke="black" points="293.59,-214.8 110.41,-214.8 110.41,-178.8 293.59,-178.8 293.59,-214.8"/>
<text text-anchor="middle" x="202" y="-192.6" font-family="Times,serif" font-size="14.00">FeatAuthRegisterComponent </text>
</g>
<!-- FeatAuthModule&#45;&gt;FeatAuthRegisterComponent  -->
<g id="edge5" class="edge">
<title>FeatAuthModule&#45;&gt;FeatAuthRegisterComponent </title>
<path fill="none" stroke="black" stroke-dasharray="5,2" d="M271.48,-149.91C271.48,-149.91 271.48,-168.79 271.48,-168.79"/>
<polygon fill="black" stroke="black" points="267.98,-168.79 271.48,-178.79 274.98,-168.79 267.98,-168.79"/>
</g>
<!-- FeatAuthRoutingModule -->
<g id="node4" class="node">
<title>FeatAuthRoutingModule</title>
<polygon fill="#8dd3c7" stroke="black" points="568.27,-84.8 565.27,-88.8 544.27,-88.8 541.27,-84.8 411.73,-84.8 411.73,-48.8 568.27,-48.8 568.27,-84.8"/>
<text text-anchor="middle" x="490" y="-62.6" font-family="Times,serif" font-size="14.00">FeatAuthRoutingModule</text>
</g>
<!-- FeatAuthRoutingModule&#45;&gt;FeatAuthModule -->
<g id="edge3" class="edge">
<title>FeatAuthRoutingModule&#45;&gt;FeatAuthModule</title>
<path fill="none" stroke="black" d="M446.9,-84.91C446.9,-104.14 446.9,-131.8 446.9,-131.8 446.9,-131.8 370.68,-131.8 370.68,-131.8"/>
<polygon fill="black" stroke="black" points="370.68,-128.3 360.68,-131.8 370.68,-135.3 370.68,-128.3"/>
</g>
</g>
</svg>
