<?xml version="1.0" encoding="UTF-8" standalone="no"?>
<!DOCTYPE svg PUBLIC "-//W3C//DTD SVG 1.1//EN"
 "http://www.w3.org/Graphics/SVG/1.1/DTD/svg11.dtd">
<!-- Generated by graphviz version 5.0.0 (20220707.1540)
 -->
<!-- Title: dependencies Pages: 1 -->
<svg width="412pt" height="247pt"
 viewBox="0.00 0.00 412.00 246.80" xmlns="http://www.w3.org/2000/svg" xmlns:xlink="http://www.w3.org/1999/xlink">
<g id="graph0" class="graph" transform="scale(1 1) rotate(0) translate(4 242.8)">
<title>dependencies</title>
<polygon fill="white" stroke="transparent" points="-4,4 -4,-242.8 408,-242.8 408,4 -4,4"/>
<text text-anchor="middle" x="202" y="-8.2" font-family="sans-serif" font-size="14.00">dependencies</text>
<g id="clust1" class="cluster">
<title>cluster_FeatMessageModule</title>
<polygon fill="none" stroke="black" stroke-dasharray="1,5" points="8,-32.8 8,-230.8 396,-230.8 396,-32.8 8,-32.8"/>
</g>
<g id="clust2" class="cluster">
<title>cluster_FeatMessageModule_declarations</title>
<polygon fill="none" stroke="black" points="218,-40.8 218,-92.8 388,-92.8 388,-40.8 218,-40.8"/>
</g>
<g id="clust4" class="cluster">
<title>cluster_FeatMessageModule_imports</title>
<polygon fill="none" stroke="black" points="16,-40.8 16,-92.8 210,-92.8 210,-40.8 16,-40.8"/>
</g>
<g id="clust5" class="cluster">
<title>cluster_FeatMessageModule_exports</title>
<polygon fill="none" stroke="black" points="120,-170.8 120,-222.8 294,-222.8 294,-170.8 120,-170.8"/>
</g>
<!-- FeatMessageComponent -->
<g id="node1" class="node">
<title>FeatMessageComponent</title>
<polygon fill="#ffffb3" stroke="black" points="380.42,-84.8 225.58,-84.8 225.58,-48.8 380.42,-48.8 380.42,-84.8"/>
<text text-anchor="middle" x="303" y="-62.6" font-family="Times,serif" font-size="14.00">FeatMessageComponent</text>
</g>
<!-- FeatMessageModule -->
<g id="node2" class="node">
<title>FeatMessageModule</title>
<polygon fill="#8dd3c7" stroke="black" points="273.14,-149.8 270.14,-153.8 249.14,-153.8 246.14,-149.8 140.86,-149.8 140.86,-113.8 273.14,-113.8 273.14,-149.8"/>
<text text-anchor="middle" x="207" y="-127.6" font-family="Times,serif" font-size="14.00">FeatMessageModule</text>
</g>
<!-- FeatMessageComponent&#45;&gt;FeatMessageModule -->
<g id="edge1" class="edge">
<title>FeatMessageComponent&#45;&gt;FeatMessageModule</title>
<path fill="none" stroke="black" d="M249.56,-84.91C249.56,-84.91 249.56,-103.79 249.56,-103.79"/>
<polygon fill="black" stroke="black" points="246.06,-103.79 249.56,-113.79 253.06,-103.79 246.06,-103.79"/>
</g>
<!-- FeatMessageComponent  -->
<g id="node4" class="node">
<title>FeatMessageComponent </title>
<polygon fill="#fb8072" stroke="black" points="285.92,-214.8 128.08,-214.8 128.08,-178.8 285.92,-178.8 285.92,-214.8"/>
<text text-anchor="middle" x="207" y="-192.6" font-family="Times,serif" font-size="14.00">FeatMessageComponent </text>
</g>
<!-- FeatMessageModule&#45;&gt;FeatMessageComponent  -->
<g id="edge3" class="edge">
<title>FeatMessageModule&#45;&gt;FeatMessageComponent </title>
<path fill="none" stroke="black" stroke-dasharray="5,2" d="M207,-149.91C207,-149.91 207,-168.79 207,-168.79"/>
<polygon fill="black" stroke="black" points="203.5,-168.79 207,-178.79 210.5,-168.79 203.5,-168.79"/>
</g>
<!-- FeatMessageRoutingModule -->
<g id="node3" class="node">
<title>FeatMessageRoutingModule</title>
<polygon fill="#8dd3c7" stroke="black" points="201.76,-84.8 198.76,-88.8 177.76,-88.8 174.76,-84.8 24.24,-84.8 24.24,-48.8 201.76,-48.8 201.76,-84.8"/>
<text text-anchor="middle" x="113" y="-62.6" font-family="Times,serif" font-size="14.00">FeatMessageRoutingModule</text>
</g>
<!-- FeatMessageRoutingModule&#45;&gt;FeatMessageModule -->
<g id="edge2" class="edge">
<title>FeatMessageRoutingModule&#45;&gt;FeatMessageModule</title>
<path fill="none" stroke="black" d="M171.28,-84.91C171.28,-84.91 171.28,-103.79 171.28,-103.79"/>
<polygon fill="black" stroke="black" points="167.78,-103.79 171.28,-113.79 174.78,-103.79 167.78,-103.79"/>
</g>
</g>
</svg>
