<?xml version="1.0" encoding="UTF-8" standalone="no"?>
<!DOCTYPE svg PUBLIC "-//W3C//DTD SVG 1.1//EN"
 "http://www.w3.org/Graphics/SVG/1.1/DTD/svg11.dtd">
<!-- Generated by graphviz version 5.0.0 (20220707.1540)
 -->
<!-- Title: dependencies Pages: 1 -->
<svg width="830pt" height="323pt"
 viewBox="0.00 0.00 830.00 322.80" xmlns="http://www.w3.org/2000/svg" xmlns:xlink="http://www.w3.org/1999/xlink">
<g id="graph0" class="graph" transform="scale(1 1) rotate(0) translate(4 318.8)">
<title>dependencies</title>
<polygon fill="white" stroke="transparent" points="-4,4 -4,-318.8 826,-318.8 826,4 -4,4"/>
<text text-anchor="middle" x="411" y="-8.2" font-family="sans-serif" font-size="14.00">dependencies</text>
<g id="clust1" class="cluster">
<title>cluster_AppModule</title>
<polygon fill="none" stroke="black" stroke-dasharray="1,5" points="311,-108.8 311,-306.8 814,-306.8 814,-108.8 311,-108.8"/>
</g>
<g id="clust2" class="cluster">
<title>cluster_AppModule_declarations</title>
<polygon fill="none" stroke="black" points="684,-116.8 684,-168.8 806,-168.8 806,-116.8 684,-116.8"/>
</g>
<g id="clust4" class="cluster">
<title>cluster_AppModule_imports</title>
<polygon fill="none" stroke="black" points="319,-116.8 319,-168.8 676,-168.8 676,-116.8 319,-116.8"/>
</g>
<g id="clust6" class="cluster">
<title>cluster_AppModule_bootstrap</title>
<polygon fill="none" stroke="black" points="479,-246.8 479,-298.8 603,-298.8 603,-246.8 479,-246.8"/>
</g>
<g id="clust32" class="cluster">
<title>cluster_SharedModule</title>
<polygon fill="none" stroke="black" stroke-dasharray="1,5" points="8,-40.8 8,-176.8 292,-176.8 292,-40.8 8,-40.8"/>
</g>
<g id="clust35" class="cluster">
<title>cluster_SharedModule_exports</title>
<polygon fill="none" stroke="black" points="16,-116.8 16,-168.8 284,-168.8 284,-116.8 16,-116.8"/>
</g>
<g id="clust38" class="cluster">
<title>cluster_ViewModule</title>
<polygon fill="none" stroke="black" stroke-dasharray="1,5" points="300,-32.8 300,-100.8 466,-100.8 466,-32.8 300,-32.8"/>
</g>
<g id="clust40" class="cluster">
<title>cluster_ViewModule_imports</title>
<polygon fill="none" stroke="black" points="308,-40.8 308,-92.8 458,-92.8 458,-40.8 308,-40.8"/>
</g>
<!-- AppComponent -->
<g id="node1" class="node">
<title>AppComponent</title>
<polygon fill="#ffffb3" stroke="black" points="797.94,-160.8 692.06,-160.8 692.06,-124.8 797.94,-124.8 797.94,-160.8"/>
<text text-anchor="middle" x="745" y="-138.6" font-family="Times,serif" font-size="14.00">AppComponent</text>
</g>
<!-- AppModule -->
<g id="node2" class="node">
<title>AppModule</title>
<polygon fill="#8dd3c7" stroke="black" points="582.66,-225.8 579.66,-229.8 558.66,-229.8 555.66,-225.8 499.34,-225.8 499.34,-189.8 582.66,-189.8 582.66,-225.8"/>
<text text-anchor="middle" x="541" y="-203.6" font-family="Times,serif" font-size="14.00">AppModule</text>
</g>
<!-- AppComponent&#45;&gt;AppModule -->
<g id="edge1" class="edge">
<title>AppComponent&#45;&gt;AppModule</title>
<path fill="none" stroke="black" d="M745,-160.91C745,-180.14 745,-207.8 745,-207.8 745,-207.8 592.77,-207.8 592.77,-207.8"/>
<polygon fill="black" stroke="black" points="592.77,-204.3 582.77,-207.8 592.77,-211.3 592.77,-204.3"/>
</g>
<!-- AppComponent  -->
<g id="node6" class="node">
<title>AppComponent </title>
<polygon fill="#80b1d3" stroke="black" points="595.44,-290.8 486.56,-290.8 486.56,-254.8 595.44,-254.8 595.44,-290.8"/>
<text text-anchor="middle" x="541" y="-268.6" font-family="Times,serif" font-size="14.00">AppComponent </text>
</g>
<!-- AppModule&#45;&gt;AppComponent  -->
<g id="edge5" class="edge">
<title>AppModule&#45;&gt;AppComponent </title>
<path fill="none" stroke="black" stroke-dasharray="1,5" d="M541,-225.91C541,-225.91 541,-244.79 541,-244.79"/>
<polygon fill="black" stroke="black" points="537.5,-244.79 541,-254.79 544.5,-244.79 537.5,-244.79"/>
</g>
<!-- AppRoutingModule -->
<g id="node3" class="node">
<title>AppRoutingModule</title>
<polygon fill="#8dd3c7" stroke="black" points="668.28,-160.8 665.28,-164.8 644.28,-164.8 641.28,-160.8 539.72,-160.8 539.72,-124.8 668.28,-124.8 668.28,-160.8"/>
<text text-anchor="middle" x="604" y="-138.6" font-family="Times,serif" font-size="14.00">AppRoutingModule</text>
</g>
<!-- AppRoutingModule&#45;&gt;AppModule -->
<g id="edge2" class="edge">
<title>AppRoutingModule&#45;&gt;AppModule</title>
<path fill="none" stroke="black" d="M561.22,-160.91C561.22,-160.91 561.22,-179.79 561.22,-179.79"/>
<polygon fill="black" stroke="black" points="557.72,-179.79 561.22,-189.79 564.72,-179.79 557.72,-179.79"/>
</g>
<!-- CoreModule -->
<g id="node4" class="node">
<title>CoreModule</title>
<polygon fill="#8dd3c7" stroke="black" points="521.27,-160.8 518.27,-164.8 497.27,-164.8 494.27,-160.8 434.73,-160.8 434.73,-124.8 521.27,-124.8 521.27,-160.8"/>
<text text-anchor="middle" x="478" y="-138.6" font-family="Times,serif" font-size="14.00">CoreModule</text>
</g>
<!-- CoreModule&#45;&gt;AppModule -->
<g id="edge3" class="edge">
<title>CoreModule&#45;&gt;AppModule</title>
<path fill="none" stroke="black" d="M510.28,-160.91C510.28,-160.91 510.28,-179.79 510.28,-179.79"/>
<polygon fill="black" stroke="black" points="506.78,-179.79 510.28,-189.79 513.78,-179.79 506.78,-179.79"/>
</g>
<!-- ViewModule -->
<g id="node5" class="node">
<title>ViewModule</title>
<polygon fill="#8dd3c7" stroke="black" points="416.88,-160.8 413.88,-164.8 392.88,-164.8 389.88,-160.8 327.12,-160.8 327.12,-124.8 416.88,-124.8 416.88,-160.8"/>
<text text-anchor="middle" x="372" y="-138.6" font-family="Times,serif" font-size="14.00">ViewModule</text>
</g>
<!-- ViewModule&#45;&gt;AppModule -->
<g id="edge4" class="edge">
<title>ViewModule&#45;&gt;AppModule</title>
<path fill="none" stroke="black" d="M372,-160.91C372,-180.14 372,-207.8 372,-207.8 372,-207.8 489.22,-207.8 489.22,-207.8"/>
<polygon fill="black" stroke="black" points="489.22,-211.3 499.22,-207.8 489.22,-204.3 489.22,-211.3"/>
</g>
<!-- BsImportModule  -->
<g id="node7" class="node">
<title>BsImportModule </title>
<polygon fill="#fb8072" stroke="black" points="275.94,-160.8 160.06,-160.8 160.06,-124.8 275.94,-124.8 275.94,-160.8"/>
<text text-anchor="middle" x="218" y="-138.6" font-family="Times,serif" font-size="14.00">BsImportModule </text>
</g>
<!-- NgImportModule  -->
<g id="node8" class="node">
<title>NgImportModule </title>
<polygon fill="#fb8072" stroke="black" points="142.27,-160.8 23.73,-160.8 23.73,-124.8 142.27,-124.8 142.27,-160.8"/>
<text text-anchor="middle" x="83" y="-138.6" font-family="Times,serif" font-size="14.00">NgImportModule </text>
</g>
<!-- SharedModule -->
<g id="node9" class="node">
<title>SharedModule</title>
<polygon fill="#8dd3c7" stroke="black" points="267.43,-84.8 264.43,-88.8 243.43,-88.8 240.43,-84.8 168.57,-84.8 168.57,-48.8 267.43,-48.8 267.43,-84.8"/>
<text text-anchor="middle" x="218" y="-62.6" font-family="Times,serif" font-size="14.00">SharedModule</text>
</g>
<!-- SharedModule&#45;&gt;ViewModule -->
<g id="edge8" class="edge">
<title>SharedModule&#45;&gt;ViewModule</title>
<path fill="none" stroke="black" d="M267.23,-66.8C282.66,-66.8 295.74,-66.8 295.74,-66.8 295.74,-66.8 295.74,-142.8 295.74,-142.8 295.74,-142.8 316.76,-142.8 316.76,-142.8"/>
<polygon fill="black" stroke="black" points="316.76,-146.3 326.76,-142.8 316.76,-139.3 316.76,-146.3"/>
</g>
<!-- SharedModule&#45;&gt;BsImportModule  -->
<g id="edge6" class="edge">
<title>SharedModule&#45;&gt;BsImportModule </title>
<path fill="none" stroke="black" stroke-dasharray="5,2" d="M218,-84.81C218,-84.81 218,-114.65 218,-114.65"/>
<polygon fill="black" stroke="black" points="214.5,-114.65 218,-124.65 221.5,-114.65 214.5,-114.65"/>
</g>
<!-- SharedModule&#45;&gt;NgImportModule  -->
<g id="edge7" class="edge">
<title>SharedModule&#45;&gt;NgImportModule </title>
<path fill="none" stroke="black" stroke-dasharray="5,2" d="M168.5,-66.8C129.97,-66.8 83,-66.8 83,-66.8 83,-66.8 83,-114.79 83,-114.79"/>
<polygon fill="black" stroke="black" points="79.5,-114.79 83,-124.79 86.5,-114.79 79.5,-114.79"/>
</g>
<!-- ViewRoutingModule -->
<g id="node10" class="node">
<title>ViewRoutingModule</title>
<polygon fill="#8dd3c7" stroke="black" points="450.49,-84.8 447.49,-88.8 426.49,-88.8 423.49,-84.8 315.51,-84.8 315.51,-48.8 450.49,-48.8 450.49,-84.8"/>
<text text-anchor="middle" x="383" y="-62.6" font-family="Times,serif" font-size="14.00">ViewRoutingModule</text>
</g>
<!-- ViewRoutingModule&#45;&gt;ViewModule -->
<g id="edge9" class="edge">
<title>ViewRoutingModule&#45;&gt;ViewModule</title>
<path fill="none" stroke="black" d="M372,-84.81C372,-84.81 372,-114.65 372,-114.65"/>
<polygon fill="black" stroke="black" points="368.5,-114.65 372,-124.65 375.5,-114.65 368.5,-114.65"/>
</g>
</g>
</svg>
