<?xml version="1.0" encoding="UTF-8" standalone="no"?>
<!DOCTYPE svg PUBLIC "-//W3C//DTD SVG 1.1//EN"
 "http://www.w3.org/Graphics/SVG/1.1/DTD/svg11.dtd">
<!-- Generated by graphviz version 5.0.0 (20220707.1540)
 -->
<!-- Title: dependencies Pages: 1 -->
<svg width="3295pt" height="329pt"
 viewBox="0.00 0.00 3295.00 328.80" xmlns="http://www.w3.org/2000/svg" xmlns:xlink="http://www.w3.org/1999/xlink">
<g id="graph0" class="graph" transform="scale(1 1) rotate(0) translate(4 324.8)">
<title>dependencies</title>
<polygon fill="white" stroke="transparent" points="-4,4 -4,-324.8 3291,-324.8 3291,4 -4,4"/>
<text text-anchor="middle" x="1643.5" y="-8.2" font-family="sans-serif" font-size="14.00">dependencies</text>
<g id="clust1" class="cluster">
<title>cluster_AppModule</title>
<polygon fill="none" stroke="black" stroke-dasharray="1,5" points="208,-108.8 208,-312.8 603,-312.8 603,-108.8 208,-108.8"/>
</g>
<g id="clust2" class="cluster">
<title>cluster_AppModule_declarations</title>
<polygon fill="none" stroke="black" points="473,-116.8 473,-168.8 595,-168.8 595,-116.8 473,-116.8"/>
</g>
<g id="clust4" class="cluster">
<title>cluster_AppModule_imports</title>
<polygon fill="none" stroke="black" points="216,-116.8 216,-168.8 465,-168.8 465,-116.8 216,-116.8"/>
</g>
<g id="clust6" class="cluster">
<title>cluster_AppModule_bootstrap</title>
<polygon fill="none" stroke="black" points="331,-252.8 331,-304.8 455,-304.8 455,-252.8 331,-252.8"/>
</g>
<g id="clust20" class="cluster">
<title>cluster_CoreModule</title>
<polygon fill="none" stroke="black" stroke-dasharray="1,5" points="8,-32.8 8,-100.8 626,-100.8 626,-32.8 8,-32.8"/>
</g>
<g id="clust25" class="cluster">
<title>cluster_CoreModule_providers</title>
<polygon fill="none" stroke="black" points="16,-40.8 16,-92.8 618,-92.8 618,-40.8 16,-40.8"/>
</g>
<g id="clust26" class="cluster">
<title>cluster_FeatAuthModule</title>
<polygon fill="none" stroke="black" stroke-dasharray="1,5" points="634,-32.8 634,-244.8 1210,-244.8 1210,-32.8 634,-32.8"/>
</g>
<g id="clust27" class="cluster">
<title>cluster_FeatAuthModule_declarations</title>
<polygon fill="none" stroke="black" points="822,-40.8 822,-92.8 1202,-92.8 1202,-40.8 822,-40.8"/>
</g>
<g id="clust30" class="cluster">
<title>cluster_FeatAuthModule_imports</title>
<polygon fill="none" stroke="black" points="642,-40.8 642,-92.8 814,-92.8 814,-40.8 642,-40.8"/>
</g>
<g id="clust31" class="cluster">
<title>cluster_FeatAuthModule_exports</title>
<polygon fill="none" stroke="black" points="728,-184.8 728,-236.8 1116,-236.8 1116,-184.8 728,-184.8"/>
</g>
<g id="clust40" class="cluster">
<title>cluster_FeatInfoModule</title>
<polygon fill="none" stroke="black" stroke-dasharray="1,5" points="1218,-32.8 1218,-244.8 1554,-244.8 1554,-32.8 1218,-32.8"/>
</g>
<g id="clust41" class="cluster">
<title>cluster_FeatInfoModule_declarations</title>
<polygon fill="none" stroke="black" points="1402,-40.8 1402,-92.8 1546,-92.8 1546,-40.8 1402,-40.8"/>
</g>
<g id="clust43" class="cluster">
<title>cluster_FeatInfoModule_imports</title>
<polygon fill="none" stroke="black" points="1226,-40.8 1226,-92.8 1394,-92.8 1394,-40.8 1226,-40.8"/>
</g>
<g id="clust44" class="cluster">
<title>cluster_FeatInfoModule_exports</title>
<polygon fill="none" stroke="black" points="1317,-184.8 1317,-236.8 1465,-236.8 1465,-184.8 1317,-184.8"/>
</g>
<g id="clust53" class="cluster">
<title>cluster_FeatMessageModule</title>
<polygon fill="none" stroke="black" stroke-dasharray="1,5" points="1562,-32.8 1562,-244.8 1950,-244.8 1950,-32.8 1562,-32.8"/>
</g>
<g id="clust54" class="cluster">
<title>cluster_FeatMessageModule_declarations</title>
<polygon fill="none" stroke="black" points="1772,-40.8 1772,-92.8 1942,-92.8 1942,-40.8 1772,-40.8"/>
</g>
<g id="clust56" class="cluster">
<title>cluster_FeatMessageModule_imports</title>
<polygon fill="none" stroke="black" points="1570,-40.8 1570,-92.8 1764,-92.8 1764,-40.8 1570,-40.8"/>
</g>
<g id="clust57" class="cluster">
<title>cluster_FeatMessageModule_exports</title>
<polygon fill="none" stroke="black" points="1674,-184.8 1674,-236.8 1848,-236.8 1848,-184.8 1674,-184.8"/>
</g>
<g id="clust78" class="cluster">
<title>cluster_SharedModule</title>
<polygon fill="none" stroke="black" stroke-dasharray="1,5" points="1958,-40.8 1958,-176.8 2242,-176.8 2242,-40.8 1958,-40.8"/>
</g>
<g id="clust81" class="cluster">
<title>cluster_SharedModule_exports</title>
<polygon fill="none" stroke="black" points="1966,-116.8 1966,-168.8 2234,-168.8 2234,-116.8 1966,-116.8"/>
</g>
<g id="clust84" class="cluster">
<title>cluster_SplashModule</title>
<polygon fill="none" stroke="black" stroke-dasharray="1,5" points="2250,-32.8 2250,-244.8 2604,-244.8 2604,-32.8 2250,-32.8"/>
</g>
<g id="clust85" class="cluster">
<title>cluster_SplashModule_declarations</title>
<polygon fill="none" stroke="black" points="2424,-40.8 2424,-92.8 2596,-92.8 2596,-40.8 2424,-40.8"/>
</g>
<g id="clust87" class="cluster">
<title>cluster_SplashModule_imports</title>
<polygon fill="none" stroke="black" points="2258,-40.8 2258,-92.8 2416,-92.8 2416,-40.8 2258,-40.8"/>
</g>
<g id="clust88" class="cluster">
<title>cluster_SplashModule_exports</title>
<polygon fill="none" stroke="black" points="2258,-184.8 2258,-236.8 2434,-236.8 2434,-184.8 2258,-184.8"/>
</g>
<g id="clust97" class="cluster">
<title>cluster_ViewModule</title>
<polygon fill="none" stroke="black" stroke-dasharray="1,5" points="2612,-32.8 2612,-244.8 3279,-244.8 3279,-32.8 2612,-32.8"/>
</g>
<g id="clust98" class="cluster">
<title>cluster_ViewModule_declarations</title>
<polygon fill="none" stroke="black" points="2778,-40.8 2778,-92.8 3271,-92.8 3271,-40.8 2778,-40.8"/>
</g>
<g id="clust102" class="cluster">
<title>cluster_ViewModule_imports</title>
<polygon fill="none" stroke="black" points="2620,-40.8 2620,-92.8 2770,-92.8 2770,-40.8 2620,-40.8"/>
</g>
<g id="clust103" class="cluster">
<title>cluster_ViewModule_exports</title>
<polygon fill="none" stroke="black" points="2620,-184.8 2620,-236.8 3124,-236.8 3124,-184.8 2620,-184.8"/>
</g>
<!-- AppComponent -->
<g id="node1" class="node">
<title>AppComponent</title>
<polygon fill="#ffffb3" stroke="black" points="586.94,-160.8 481.06,-160.8 481.06,-124.8 586.94,-124.8 586.94,-160.8"/>
<text text-anchor="middle" x="534" y="-138.6" font-family="Times,serif" font-size="14.00">AppComponent</text>
</g>
<!-- AppModule -->
<g id="node2" class="node">
<title>AppModule</title>
<polygon fill="#8dd3c7" stroke="black" points="434.66,-228.8 431.66,-232.8 410.66,-232.8 407.66,-228.8 351.34,-228.8 351.34,-192.8 434.66,-192.8 434.66,-228.8"/>
<text text-anchor="middle" x="393" y="-206.6" font-family="Times,serif" font-size="14.00">AppModule</text>
</g>
<!-- AppComponent&#45;&gt;AppModule -->
<g id="edge1" class="edge">
<title>AppComponent&#45;&gt;AppModule</title>
<path fill="none" stroke="black" d="M534,-161.02C534,-181.17 534,-210.8 534,-210.8 534,-210.8 444.92,-210.8 444.92,-210.8"/>
<polygon fill="black" stroke="black" points="444.92,-207.3 434.92,-210.8 444.92,-214.3 444.92,-207.3"/>
</g>
<!-- AppComponent  -->
<g id="node5" class="node">
<title>AppComponent </title>
<polygon fill="#80b1d3" stroke="black" points="447.44,-296.8 338.56,-296.8 338.56,-260.8 447.44,-260.8 447.44,-296.8"/>
<text text-anchor="middle" x="393" y="-274.6" font-family="Times,serif" font-size="14.00">AppComponent </text>
</g>
<!-- AppModule&#45;&gt;AppComponent  -->
<g id="edge4" class="edge">
<title>AppModule&#45;&gt;AppComponent </title>
<path fill="none" stroke="black" stroke-dasharray="1,5" d="M393,-229.02C393,-229.02 393,-250.53 393,-250.53"/>
<polygon fill="black" stroke="black" points="389.5,-250.53 393,-260.53 396.5,-250.53 389.5,-250.53"/>
</g>
<!-- AppRoutingModule -->
<g id="node3" class="node">
<title>AppRoutingModule</title>
<polygon fill="#8dd3c7" stroke="black" points="457.28,-160.8 454.28,-164.8 433.28,-164.8 430.28,-160.8 328.72,-160.8 328.72,-124.8 457.28,-124.8 457.28,-160.8"/>
<text text-anchor="middle" x="393" y="-138.6" font-family="Times,serif" font-size="14.00">AppRoutingModule</text>
</g>
<!-- AppRoutingModule&#45;&gt;AppModule -->
<g id="edge2" class="edge">
<title>AppRoutingModule&#45;&gt;AppModule</title>
<path fill="none" stroke="black" d="M393,-161.02C393,-161.02 393,-182.53 393,-182.53"/>
<polygon fill="black" stroke="black" points="389.5,-182.53 393,-192.53 396.5,-182.53 389.5,-182.53"/>
</g>
<!-- CoreModule -->
<g id="node4" class="node">
<title>CoreModule</title>
<polygon fill="#8dd3c7" stroke="black" points="310.27,-160.8 307.27,-164.8 286.27,-164.8 283.27,-160.8 223.73,-160.8 223.73,-124.8 310.27,-124.8 310.27,-160.8"/>
<text text-anchor="middle" x="267" y="-138.6" font-family="Times,serif" font-size="14.00">CoreModule</text>
</g>
<!-- CoreModule&#45;&gt;AppModule -->
<g id="edge3" class="edge">
<title>CoreModule&#45;&gt;AppModule</title>
<path fill="none" stroke="black" d="M267,-161.02C267,-181.17 267,-210.8 267,-210.8 267,-210.8 341.04,-210.8 341.04,-210.8"/>
<polygon fill="black" stroke="black" points="341.04,-214.3 351.04,-210.8 341.04,-207.3 341.04,-214.3"/>
</g>
<!-- AuthService -->
<g id="node6" class="node">
<title>AuthService</title>
<ellipse fill="#fdb462" stroke="black" cx="551" cy="-66.8" rx="59.11" ry="18"/>
<text text-anchor="middle" x="551" y="-62.6" font-family="Times,serif" font-size="14.00">AuthService</text>
</g>
<!-- AuthService&#45;&gt;CoreModule -->
<g id="edge5" class="edge">
<title>AuthService&#45;&gt;CoreModule</title>
<path fill="none" stroke="black" d="M539.21,-84.59C539.21,-97.16 539.21,-111.8 539.21,-111.8 539.21,-111.8 307.1,-111.8 307.1,-111.8 307.1,-111.8 307.1,-114.77 307.1,-114.77"/>
<polygon fill="black" stroke="black" points="303.6,-114.77 307.1,-124.77 310.6,-114.77 303.6,-114.77"/>
</g>
<!-- BusEventService -->
<g id="node7" class="node">
<title>BusEventService</title>
<ellipse fill="#fdb462" stroke="black" cx="396" cy="-66.8" rx="77.59" ry="18"/>
<text text-anchor="middle" x="396" y="-62.6" font-family="Times,serif" font-size="14.00">BusEventService</text>
</g>
<!-- BusEventService&#45;&gt;CoreModule -->
<g id="edge6" class="edge">
<title>BusEventService&#45;&gt;CoreModule</title>
<path fill="none" stroke="black" d="M318.23,-66.8C309.59,-66.8 303.83,-66.8 303.83,-66.8 303.83,-66.8 303.83,-114.79 303.83,-114.79"/>
<polygon fill="black" stroke="black" points="300.33,-114.79 303.83,-124.79 307.33,-114.79 300.33,-114.79"/>
</g>
<!-- LogService -->
<g id="node8" class="node">
<title>LogService</title>
<ellipse fill="#fdb462" stroke="black" cx="245" cy="-66.8" rx="55.6" ry="18"/>
<text text-anchor="middle" x="245" y="-62.6" font-family="Times,serif" font-size="14.00">LogService</text>
</g>
<!-- LogService&#45;&gt;CoreModule -->
<g id="edge7" class="edge">
<title>LogService&#45;&gt;CoreModule</title>
<path fill="none" stroke="black" d="M262.08,-84.05C262.08,-84.05 262.08,-114.56 262.08,-114.56"/>
<polygon fill="black" stroke="black" points="258.58,-114.56 262.08,-124.56 265.58,-114.56 258.58,-114.56"/>
</g>
<!-- MessageService -->
<g id="node9" class="node">
<title>MessageService</title>
<ellipse fill="#fdb462" stroke="black" cx="98" cy="-66.8" rx="73.57" ry="18"/>
<text text-anchor="middle" x="98" y="-62.6" font-family="Times,serif" font-size="14.00">MessageService</text>
</g>
<!-- MessageService&#45;&gt;CoreModule -->
<g id="edge8" class="edge">
<title>MessageService&#45;&gt;CoreModule</title>
<path fill="none" stroke="black" d="M98,-84.81C98,-107.29 98,-142.8 98,-142.8 98,-142.8 213.48,-142.8 213.48,-142.8"/>
<polygon fill="black" stroke="black" points="213.48,-146.3 223.48,-142.8 213.48,-139.3 213.48,-146.3"/>
</g>
<!-- FeatAuthLoginComponent -->
<g id="node10" class="node">
<title>FeatAuthLoginComponent</title>
<polygon fill="#ffffb3" stroke="black" points="1194.38,-84.8 1027.62,-84.8 1027.62,-48.8 1194.38,-48.8 1194.38,-84.8"/>
<text text-anchor="middle" x="1111" y="-62.6" font-family="Times,serif" font-size="14.00">FeatAuthLoginComponent</text>
</g>
<!-- FeatAuthModule -->
<g id="node12" class="node">
<title>FeatAuthModule</title>
<polygon fill="#8dd3c7" stroke="black" points="975.66,-160.8 972.66,-164.8 951.66,-164.8 948.66,-160.8 864.34,-160.8 864.34,-124.8 975.66,-124.8 975.66,-160.8"/>
<text text-anchor="middle" x="920" y="-138.6" font-family="Times,serif" font-size="14.00">FeatAuthModule</text>
</g>
<!-- FeatAuthLoginComponent&#45;&gt;FeatAuthModule -->
<g id="edge9" class="edge">
<title>FeatAuthLoginComponent&#45;&gt;FeatAuthModule</title>
<path fill="none" stroke="black" d="M1067.88,-84.81C1067.88,-107.29 1067.88,-142.8 1067.88,-142.8 1067.88,-142.8 985.91,-142.8 985.91,-142.8"/>
<polygon fill="black" stroke="black" points="985.91,-139.3 975.91,-142.8 985.91,-146.3 985.91,-139.3"/>
</g>
<!-- FeatAuthRegisterComponent -->
<g id="node11" class="node">
<title>FeatAuthRegisterComponent</title>
<polygon fill="#ffffb3" stroke="black" points="1010.09,-84.8 829.91,-84.8 829.91,-48.8 1010.09,-48.8 1010.09,-84.8"/>
<text text-anchor="middle" x="920" y="-62.6" font-family="Times,serif" font-size="14.00">FeatAuthRegisterComponent</text>
</g>
<!-- FeatAuthRegisterComponent&#45;&gt;FeatAuthModule -->
<g id="edge10" class="edge">
<title>FeatAuthRegisterComponent&#45;&gt;FeatAuthModule</title>
<path fill="none" stroke="black" d="M920,-84.81C920,-84.81 920,-114.65 920,-114.65"/>
<polygon fill="black" stroke="black" points="916.5,-114.65 920,-124.65 923.5,-114.65 916.5,-114.65"/>
</g>
<!-- FeatAuthLoginComponent  -->
<g id="node14" class="node">
<title>FeatAuthLoginComponent </title>
<polygon fill="#fb8072" stroke="black" points="1108.38,-228.8 937.62,-228.8 937.62,-192.8 1108.38,-192.8 1108.38,-228.8"/>
<text text-anchor="middle" x="1023" y="-206.6" font-family="Times,serif" font-size="14.00">FeatAuthLoginComponent </text>
</g>
<!-- FeatAuthModule&#45;&gt;FeatAuthLoginComponent  -->
<g id="edge12" class="edge">
<title>FeatAuthModule&#45;&gt;FeatAuthLoginComponent </title>
<path fill="none" stroke="black" stroke-dasharray="5,2" d="M956.82,-161.02C956.82,-161.02 956.82,-182.53 956.82,-182.53"/>
<polygon fill="black" stroke="black" points="953.32,-182.53 956.82,-192.53 960.32,-182.53 953.32,-182.53"/>
</g>
<!-- FeatAuthRegisterComponent  -->
<g id="node15" class="node">
<title>FeatAuthRegisterComponent </title>
<polygon fill="#fb8072" stroke="black" points="919.59,-228.8 736.41,-228.8 736.41,-192.8 919.59,-192.8 919.59,-228.8"/>
<text text-anchor="middle" x="828" y="-206.6" font-family="Times,serif" font-size="14.00">FeatAuthRegisterComponent </text>
</g>
<!-- FeatAuthModule&#45;&gt;FeatAuthRegisterComponent  -->
<g id="edge13" class="edge">
<title>FeatAuthModule&#45;&gt;FeatAuthRegisterComponent </title>
<path fill="none" stroke="black" stroke-dasharray="5,2" d="M891.98,-161.02C891.98,-161.02 891.98,-182.53 891.98,-182.53"/>
<polygon fill="black" stroke="black" points="888.48,-182.53 891.98,-192.53 895.48,-182.53 888.48,-182.53"/>
</g>
<!-- FeatAuthRoutingModule -->
<g id="node13" class="node">
<title>FeatAuthRoutingModule</title>
<polygon fill="#8dd3c7" stroke="black" points="806.27,-84.8 803.27,-88.8 782.27,-88.8 779.27,-84.8 649.73,-84.8 649.73,-48.8 806.27,-48.8 806.27,-84.8"/>
<text text-anchor="middle" x="728" y="-62.6" font-family="Times,serif" font-size="14.00">FeatAuthRoutingModule</text>
</g>
<!-- FeatAuthRoutingModule&#45;&gt;FeatAuthModule -->
<g id="edge11" class="edge">
<title>FeatAuthRoutingModule&#45;&gt;FeatAuthModule</title>
<path fill="none" stroke="black" d="M771.3,-84.81C771.3,-107.29 771.3,-142.8 771.3,-142.8 771.3,-142.8 854.2,-142.8 854.2,-142.8"/>
<polygon fill="black" stroke="black" points="854.2,-146.3 864.2,-142.8 854.2,-139.3 854.2,-146.3"/>
</g>
<!-- FeatInfoComponent -->
<g id="node16" class="node">
<title>FeatInfoComponent</title>
<polygon fill="#ffffb3" stroke="black" points="1538.26,-84.8 1409.74,-84.8 1409.74,-48.8 1538.26,-48.8 1538.26,-84.8"/>
<text text-anchor="middle" x="1474" y="-62.6" font-family="Times,serif" font-size="14.00">FeatInfoComponent</text>
</g>
<!-- FeatInfoModule -->
<g id="node17" class="node">
<title>FeatInfoModule</title>
<polygon fill="#8dd3c7" stroke="black" points="1444.48,-160.8 1441.48,-164.8 1420.48,-164.8 1417.48,-160.8 1337.52,-160.8 1337.52,-124.8 1444.48,-124.8 1444.48,-160.8"/>
<text text-anchor="middle" x="1391" y="-138.6" font-family="Times,serif" font-size="14.00">FeatInfoModule</text>
</g>
<!-- FeatInfoComponent&#45;&gt;FeatInfoModule -->
<g id="edge14" class="edge">
<title>FeatInfoComponent&#45;&gt;FeatInfoModule</title>
<path fill="none" stroke="black" d="M1427.06,-84.81C1427.06,-84.81 1427.06,-114.65 1427.06,-114.65"/>
<polygon fill="black" stroke="black" points="1423.56,-114.65 1427.06,-124.65 1430.56,-114.65 1423.56,-114.65"/>
</g>
<!-- FeatInfoComponent  -->
<g id="node19" class="node">
<title>FeatInfoComponent </title>
<polygon fill="#fb8072" stroke="black" points="1457.26,-228.8 1324.74,-228.8 1324.74,-192.8 1457.26,-192.8 1457.26,-228.8"/>
<text text-anchor="middle" x="1391" y="-206.6" font-family="Times,serif" font-size="14.00">FeatInfoComponent </text>
</g>
<!-- FeatInfoModule&#45;&gt;FeatInfoComponent  -->
<g id="edge16" class="edge">
<title>FeatInfoModule&#45;&gt;FeatInfoComponent </title>
<path fill="none" stroke="black" stroke-dasharray="5,2" d="M1391,-161.02C1391,-161.02 1391,-182.53 1391,-182.53"/>
<polygon fill="black" stroke="black" points="1387.5,-182.53 1391,-192.53 1394.5,-182.53 1387.5,-182.53"/>
</g>
<!-- FeatInfoRoutingModule -->
<g id="node18" class="node">
<title>FeatInfoRoutingModule</title>
<polygon fill="#8dd3c7" stroke="black" points="1386.1,-84.8 1383.1,-88.8 1362.1,-88.8 1359.1,-84.8 1233.9,-84.8 1233.9,-48.8 1386.1,-48.8 1386.1,-84.8"/>
<text text-anchor="middle" x="1310" y="-62.6" font-family="Times,serif" font-size="14.00">FeatInfoRoutingModule</text>
</g>
<!-- FeatInfoRoutingModule&#45;&gt;FeatInfoModule -->
<g id="edge15" class="edge">
<title>FeatInfoRoutingModule&#45;&gt;FeatInfoModule</title>
<path fill="none" stroke="black" d="M1361.78,-84.81C1361.78,-84.81 1361.78,-114.65 1361.78,-114.65"/>
<polygon fill="black" stroke="black" points="1358.28,-114.65 1361.78,-124.65 1365.28,-114.65 1358.28,-114.65"/>
</g>
<!-- FeatMessageComponent -->
<g id="node20" class="node">
<title>FeatMessageComponent</title>
<polygon fill="#ffffb3" stroke="black" points="1934.42,-84.8 1779.58,-84.8 1779.58,-48.8 1934.42,-48.8 1934.42,-84.8"/>
<text text-anchor="middle" x="1857" y="-62.6" font-family="Times,serif" font-size="14.00">FeatMessageComponent</text>
</g>
<!-- FeatMessageModule -->
<g id="node21" class="node">
<title>FeatMessageModule</title>
<polygon fill="#8dd3c7" stroke="black" points="1827.14,-160.8 1824.14,-164.8 1803.14,-164.8 1800.14,-160.8 1694.86,-160.8 1694.86,-124.8 1827.14,-124.8 1827.14,-160.8"/>
<text text-anchor="middle" x="1761" y="-138.6" font-family="Times,serif" font-size="14.00">FeatMessageModule</text>
</g>
<!-- FeatMessageComponent&#45;&gt;FeatMessageModule -->
<g id="edge17" class="edge">
<title>FeatMessageComponent&#45;&gt;FeatMessageModule</title>
<path fill="none" stroke="black" d="M1803.56,-84.81C1803.56,-84.81 1803.56,-114.65 1803.56,-114.65"/>
<polygon fill="black" stroke="black" points="1800.06,-114.65 1803.56,-124.65 1807.06,-114.65 1800.06,-114.65"/>
</g>
<!-- FeatMessageComponent  -->
<g id="node23" class="node">
<title>FeatMessageComponent </title>
<polygon fill="#fb8072" stroke="black" points="1839.92,-228.8 1682.08,-228.8 1682.08,-192.8 1839.92,-192.8 1839.92,-228.8"/>
<text text-anchor="middle" x="1761" y="-206.6" font-family="Times,serif" font-size="14.00">FeatMessageComponent </text>
</g>
<!-- FeatMessageModule&#45;&gt;FeatMessageComponent  -->
<g id="edge19" class="edge">
<title>FeatMessageModule&#45;&gt;FeatMessageComponent </title>
<path fill="none" stroke="black" stroke-dasharray="5,2" d="M1761,-161.02C1761,-161.02 1761,-182.53 1761,-182.53"/>
<polygon fill="black" stroke="black" points="1757.5,-182.53 1761,-192.53 1764.5,-182.53 1757.5,-182.53"/>
</g>
<!-- FeatMessageRoutingModule -->
<g id="node22" class="node">
<title>FeatMessageRoutingModule</title>
<polygon fill="#8dd3c7" stroke="black" points="1755.76,-84.8 1752.76,-88.8 1731.76,-88.8 1728.76,-84.8 1578.24,-84.8 1578.24,-48.8 1755.76,-48.8 1755.76,-84.8"/>
<text text-anchor="middle" x="1667" y="-62.6" font-family="Times,serif" font-size="14.00">FeatMessageRoutingModule</text>
</g>
<!-- FeatMessageRoutingModule&#45;&gt;FeatMessageModule -->
<g id="edge18" class="edge">
<title>FeatMessageRoutingModule&#45;&gt;FeatMessageModule</title>
<path fill="none" stroke="black" d="M1725.28,-84.81C1725.28,-84.81 1725.28,-114.65 1725.28,-114.65"/>
<polygon fill="black" stroke="black" points="1721.78,-114.65 1725.28,-124.65 1728.78,-114.65 1721.78,-114.65"/>
</g>
<!-- BsImportModule  -->
<g id="node24" class="node">
<title>BsImportModule </title>
<polygon fill="#fb8072" stroke="black" points="2225.94,-160.8 2110.06,-160.8 2110.06,-124.8 2225.94,-124.8 2225.94,-160.8"/>
<text text-anchor="middle" x="2168" y="-138.6" font-family="Times,serif" font-size="14.00">BsImportModule </text>
</g>
<!-- NgImportModule  -->
<g id="node25" class="node">
<title>NgImportModule </title>
<polygon fill="#fb8072" stroke="black" points="2092.27,-160.8 1973.73,-160.8 1973.73,-124.8 2092.27,-124.8 2092.27,-160.8"/>
<text text-anchor="middle" x="2033" y="-138.6" font-family="Times,serif" font-size="14.00">NgImportModule </text>
</g>
<!-- SharedModule -->
<g id="node26" class="node">
<title>SharedModule</title>
<polygon fill="#8dd3c7" stroke="black" points="2225.43,-84.8 2222.43,-88.8 2201.43,-88.8 2198.43,-84.8 2126.57,-84.8 2126.57,-48.8 2225.43,-48.8 2225.43,-84.8"/>
<text text-anchor="middle" x="2176" y="-62.6" font-family="Times,serif" font-size="14.00">SharedModule</text>
</g>
<!-- SharedModule&#45;&gt;BsImportModule  -->
<g id="edge20" class="edge">
<title>SharedModule&#45;&gt;BsImportModule </title>
<path fill="none" stroke="black" stroke-dasharray="5,2" d="M2159.6,-84.81C2159.6,-84.81 2159.6,-114.65 2159.6,-114.65"/>
<polygon fill="black" stroke="black" points="2156.1,-114.65 2159.6,-124.65 2163.1,-114.65 2156.1,-114.65"/>
</g>
<!-- SharedModule&#45;&gt;NgImportModule  -->
<g id="edge21" class="edge">
<title>SharedModule&#45;&gt;NgImportModule </title>
<path fill="none" stroke="black" stroke-dasharray="5,2" d="M2126.39,-66.8C2085.09,-66.8 2033,-66.8 2033,-66.8 2033,-66.8 2033,-114.79 2033,-114.79"/>
<polygon fill="black" stroke="black" points="2029.5,-114.79 2033,-124.79 2036.5,-114.79 2029.5,-114.79"/>
</g>
<!-- SplashModule -->
<g id="node28" class="node">
<title>SplashModule</title>
<polygon fill="#8dd3c7" stroke="black" points="2389.39,-160.8 2386.39,-164.8 2365.39,-164.8 2362.39,-160.8 2292.61,-160.8 2292.61,-124.8 2389.39,-124.8 2389.39,-160.8"/>
<text text-anchor="middle" x="2341" y="-138.6" font-family="Times,serif" font-size="14.00">SplashModule</text>
</g>
<!-- SharedModule&#45;&gt;SplashModule -->
<g id="edge23" class="edge">
<title>SharedModule&#45;&gt;SplashModule</title>
<path fill="none" stroke="black" d="M2225.32,-66.8C2236.89,-66.8 2245.92,-66.8 2245.92,-66.8 2245.92,-66.8 2245.92,-142.8 2245.92,-142.8 2245.92,-142.8 2282.35,-142.8 2282.35,-142.8"/>
<polygon fill="black" stroke="black" points="2282.35,-146.3 2292.35,-142.8 2282.35,-139.3 2282.35,-146.3"/>
</g>
<!-- ViewModule -->
<g id="node34" class="node">
<title>ViewModule</title>
<polygon fill="#8dd3c7" stroke="black" points="2916.88,-160.8 2913.88,-164.8 2892.88,-164.8 2889.88,-160.8 2827.12,-160.8 2827.12,-124.8 2916.88,-124.8 2916.88,-160.8"/>
<text text-anchor="middle" x="2872" y="-138.6" font-family="Times,serif" font-size="14.00">ViewModule</text>
</g>
<!-- SharedModule&#45;&gt;ViewModule -->
<g id="edge29" class="edge">
<title>SharedModule&#45;&gt;ViewModule</title>
<path fill="none" stroke="black" d="M2192.4,-85.04C2192.4,-92.23 2192.4,-98.8 2192.4,-98.8 2192.4,-98.8 2857.02,-98.8 2857.02,-98.8 2857.02,-98.8 2857.02,-114.65 2857.02,-114.65"/>
<polygon fill="black" stroke="black" points="2853.52,-114.65 2857.02,-124.65 2860.52,-114.65 2853.52,-114.65"/>
</g>
<!-- SplashScreenComponent -->
<g id="node27" class="node">
<title>SplashScreenComponent</title>
<polygon fill="#ffffb3" stroke="black" points="2588.26,-84.8 2431.74,-84.8 2431.74,-48.8 2588.26,-48.8 2588.26,-84.8"/>
<text text-anchor="middle" x="2510" y="-62.6" font-family="Times,serif" font-size="14.00">SplashScreenComponent</text>
</g>
<!-- SplashScreenComponent&#45;&gt;SplashModule -->
<g id="edge22" class="edge">
<title>SplashScreenComponent&#45;&gt;SplashModule</title>
<path fill="none" stroke="black" d="M2510,-84.81C2510,-107.29 2510,-142.8 2510,-142.8 2510,-142.8 2399.43,-142.8 2399.43,-142.8"/>
<polygon fill="black" stroke="black" points="2399.43,-139.3 2389.43,-142.8 2399.43,-146.3 2399.43,-139.3"/>
</g>
<!-- SplashScreenComponent  -->
<g id="node30" class="node">
<title>SplashScreenComponent </title>
<polygon fill="#fb8072" stroke="black" points="2426.26,-228.8 2265.74,-228.8 2265.74,-192.8 2426.26,-192.8 2426.26,-228.8"/>
<text text-anchor="middle" x="2346" y="-206.6" font-family="Times,serif" font-size="14.00">SplashScreenComponent </text>
</g>
<!-- SplashModule&#45;&gt;SplashScreenComponent  -->
<g id="edge25" class="edge">
<title>SplashModule&#45;&gt;SplashScreenComponent </title>
<path fill="none" stroke="black" stroke-dasharray="5,2" d="M2341,-161.02C2341,-161.02 2341,-182.53 2341,-182.53"/>
<polygon fill="black" stroke="black" points="2337.5,-182.53 2341,-192.53 2344.5,-182.53 2337.5,-182.53"/>
</g>
<!-- SplashRoutingModule -->
<g id="node29" class="node">
<title>SplashRoutingModule</title>
<polygon fill="#8dd3c7" stroke="black" points="2408.01,-84.8 2405.01,-88.8 2384.01,-88.8 2381.01,-84.8 2265.99,-84.8 2265.99,-48.8 2408.01,-48.8 2408.01,-84.8"/>
<text text-anchor="middle" x="2337" y="-62.6" font-family="Times,serif" font-size="14.00">SplashRoutingModule</text>
</g>
<!-- SplashRoutingModule&#45;&gt;SplashModule -->
<g id="edge24" class="edge">
<title>SplashRoutingModule&#45;&gt;SplashModule</title>
<path fill="none" stroke="black" d="M2341,-84.81C2341,-84.81 2341,-114.65 2341,-114.65"/>
<polygon fill="black" stroke="black" points="2337.5,-114.65 2341,-124.65 2344.5,-114.65 2337.5,-114.65"/>
</g>
<!-- ViewHomeComponent -->
<g id="node31" class="node">
<title>ViewHomeComponent</title>
<polygon fill="#ffffb3" stroke="black" points="3262.87,-84.8 3117.13,-84.8 3117.13,-48.8 3262.87,-48.8 3262.87,-84.8"/>
<text text-anchor="middle" x="3190" y="-62.6" font-family="Times,serif" font-size="14.00">ViewHomeComponent</text>
</g>
<!-- ViewHomeComponent&#45;&gt;ViewModule -->
<g id="edge26" class="edge">
<title>ViewHomeComponent&#45;&gt;ViewModule</title>
<path fill="none" stroke="black" d="M3190,-84.81C3190,-107.29 3190,-142.8 3190,-142.8 3190,-142.8 2926.89,-142.8 2926.89,-142.8"/>
<polygon fill="black" stroke="black" points="2926.89,-139.3 2916.89,-142.8 2926.89,-146.3 2926.89,-139.3"/>
</g>
<!-- ViewInfoComponent -->
<g id="node32" class="node">
<title>ViewInfoComponent</title>
<polygon fill="#ffffb3" stroke="black" points="3099.48,-84.8 2964.52,-84.8 2964.52,-48.8 3099.48,-48.8 3099.48,-84.8"/>
<text text-anchor="middle" x="3032" y="-62.6" font-family="Times,serif" font-size="14.00">ViewInfoComponent</text>
</g>
<!-- ViewInfoComponent&#45;&gt;ViewModule -->
<g id="edge27" class="edge">
<title>ViewInfoComponent&#45;&gt;ViewModule</title>
<path fill="none" stroke="black" d="M3055.1,-85.11C3055.1,-104.95 3055.1,-133.8 3055.1,-133.8 3055.1,-133.8 2927.26,-133.8 2927.26,-133.8"/>
<polygon fill="black" stroke="black" points="2927.26,-130.3 2917.26,-133.8 2927.26,-137.3 2927.26,-130.3"/>
</g>
<!-- ViewMessageComponent -->
<g id="node33" class="node">
<title>ViewMessageComponent</title>
<polygon fill="#ffffb3" stroke="black" points="2946.14,-84.8 2785.86,-84.8 2785.86,-48.8 2946.14,-48.8 2946.14,-84.8"/>
<text text-anchor="middle" x="2866" y="-62.6" font-family="Times,serif" font-size="14.00">ViewMessageComponent</text>
</g>
<!-- ViewMessageComponent&#45;&gt;ViewModule -->
<g id="edge28" class="edge">
<title>ViewMessageComponent&#45;&gt;ViewModule</title>
<path fill="none" stroke="black" d="M2886.98,-84.81C2886.98,-84.81 2886.98,-114.65 2886.98,-114.65"/>
<polygon fill="black" stroke="black" points="2883.48,-114.65 2886.98,-124.65 2890.48,-114.65 2883.48,-114.65"/>
</g>
<!-- ViewHomeComponent  -->
<g id="node36" class="node">
<title>ViewHomeComponent </title>
<polygon fill="#fb8072" stroke="black" points="3115.87,-228.8 2966.13,-228.8 2966.13,-192.8 3115.87,-192.8 3115.87,-228.8"/>
<text text-anchor="middle" x="3041" y="-206.6" font-family="Times,serif" font-size="14.00">ViewHomeComponent </text>
</g>
<!-- ViewModule&#45;&gt;ViewHomeComponent  -->
<g id="edge31" class="edge">
<title>ViewModule&#45;&gt;ViewHomeComponent </title>
<path fill="none" stroke="black" stroke-dasharray="5,2" d="M2917.03,-151.8C2957.54,-151.8 3010.71,-151.8 3010.71,-151.8 3010.71,-151.8 3010.71,-182.78 3010.71,-182.78"/>
<polygon fill="black" stroke="black" points="3007.21,-182.78 3010.71,-192.78 3014.21,-182.78 3007.21,-182.78"/>
</g>
<!-- ViewInfoComponent  -->
<g id="node37" class="node">
<title>ViewInfoComponent </title>
<polygon fill="#fb8072" stroke="black" points="2948.48,-228.8 2809.52,-228.8 2809.52,-192.8 2948.48,-192.8 2948.48,-228.8"/>
<text text-anchor="middle" x="2879" y="-206.6" font-family="Times,serif" font-size="14.00">ViewInfoComponent </text>
</g>
<!-- ViewModule&#45;&gt;ViewInfoComponent  -->
<g id="edge32" class="edge">
<title>ViewModule&#45;&gt;ViewInfoComponent </title>
<path fill="none" stroke="black" stroke-dasharray="5,2" d="M2872,-161.02C2872,-161.02 2872,-182.53 2872,-182.53"/>
<polygon fill="black" stroke="black" points="2868.5,-182.53 2872,-192.53 2875.5,-182.53 2868.5,-182.53"/>
</g>
<!-- ViewMessageComponent  -->
<g id="node38" class="node">
<title>ViewMessageComponent </title>
<polygon fill="#fb8072" stroke="black" points="2792.14,-228.8 2627.86,-228.8 2627.86,-192.8 2792.14,-192.8 2792.14,-228.8"/>
<text text-anchor="middle" x="2710" y="-206.6" font-family="Times,serif" font-size="14.00">ViewMessageComponent </text>
</g>
<!-- ViewModule&#45;&gt;ViewMessageComponent  -->
<g id="edge33" class="edge">
<title>ViewModule&#45;&gt;ViewMessageComponent </title>
<path fill="none" stroke="black" stroke-dasharray="5,2" d="M2827.06,-151.8C2801.32,-151.8 2774.09,-151.8 2774.09,-151.8 2774.09,-151.8 2774.09,-182.78 2774.09,-182.78"/>
<polygon fill="black" stroke="black" points="2770.59,-182.78 2774.09,-192.78 2777.59,-182.78 2770.59,-182.78"/>
</g>
<!-- ViewRoutingModule -->
<g id="node35" class="node">
<title>ViewRoutingModule</title>
<polygon fill="#8dd3c7" stroke="black" points="2762.49,-84.8 2759.49,-88.8 2738.49,-88.8 2735.49,-84.8 2627.51,-84.8 2627.51,-48.8 2762.49,-48.8 2762.49,-84.8"/>
<text text-anchor="middle" x="2695" y="-62.6" font-family="Times,serif" font-size="14.00">ViewRoutingModule</text>
</g>
<!-- ViewRoutingModule&#45;&gt;ViewModule -->
<g id="edge30" class="edge">
<title>ViewRoutingModule&#45;&gt;ViewModule</title>
<path fill="none" stroke="black" d="M2695.21,-85.11C2695.21,-104.95 2695.21,-133.8 2695.21,-133.8 2695.21,-133.8 2816.93,-133.8 2816.93,-133.8"/>
<polygon fill="black" stroke="black" points="2816.93,-137.3 2826.93,-133.8 2816.93,-130.3 2816.93,-137.3"/>
</g>
</g>
</svg>
