<?xml version="1.0" encoding="UTF-8" standalone="no"?>
<!DOCTYPE svg PUBLIC "-//W3C//DTD SVG 1.1//EN"
 "http://www.w3.org/Graphics/SVG/1.1/DTD/svg11.dtd">
<!-- Generated by graphviz version 5.0.0 (20220707.1540)
 -->
<!-- Title: dependencies Pages: 1 -->
<svg width="2120pt" height="329pt"
 viewBox="0.00 0.00 2120.00 328.80" xmlns="http://www.w3.org/2000/svg" xmlns:xlink="http://www.w3.org/1999/xlink">
<g id="graph0" class="graph" transform="scale(1 1) rotate(0) translate(4 324.8)">
<title>dependencies</title>
<polygon fill="white" stroke="transparent" points="-4,4 -4,-324.8 2116,-324.8 2116,4 -4,4"/>
<text text-anchor="middle" x="1056" y="-8.2" font-family="sans-serif" font-size="14.00">dependencies</text>
<g id="clust1" class="cluster">
<title>cluster_AppModule</title>
<polygon fill="none" stroke="black" stroke-dasharray="1,5" points="198,-108.8 198,-312.8 593,-312.8 593,-108.8 198,-108.8"/>
</g>
<g id="clust2" class="cluster">
<title>cluster_AppModule_declarations</title>
<polygon fill="none" stroke="black" points="463,-116.8 463,-168.8 585,-168.8 585,-116.8 463,-116.8"/>
</g>
<g id="clust4" class="cluster">
<title>cluster_AppModule_imports</title>
<polygon fill="none" stroke="black" points="206,-116.8 206,-168.8 455,-168.8 455,-116.8 206,-116.8"/>
</g>
<g id="clust6" class="cluster">
<title>cluster_AppModule_bootstrap</title>
<polygon fill="none" stroke="black" points="321,-252.8 321,-304.8 445,-304.8 445,-252.8 321,-252.8"/>
</g>
<g id="clust20" class="cluster">
<title>cluster_CoreModule</title>
<polygon fill="none" stroke="black" stroke-dasharray="1,5" points="8,-32.8 8,-100.8 498,-100.8 498,-32.8 8,-32.8"/>
</g>
<g id="clust25" class="cluster">
<title>cluster_CoreModule_providers</title>
<polygon fill="none" stroke="black" points="16,-40.8 16,-92.8 490,-92.8 490,-40.8 16,-40.8"/>
</g>
<g id="clust32" class="cluster">
<title>cluster_SharedModule</title>
<polygon fill="none" stroke="black" stroke-dasharray="1,5" points="601,-40.8 601,-176.8 885,-176.8 885,-40.8 601,-40.8"/>
</g>
<g id="clust35" class="cluster">
<title>cluster_SharedModule_exports</title>
<polygon fill="none" stroke="black" points="609,-116.8 609,-168.8 877,-168.8 877,-116.8 609,-116.8"/>
</g>
<g id="clust38" class="cluster">
<title>cluster_SplashModule</title>
<polygon fill="none" stroke="black" stroke-dasharray="1,5" points="893,-32.8 893,-244.8 1247,-244.8 1247,-32.8 893,-32.8"/>
</g>
<g id="clust39" class="cluster">
<title>cluster_SplashModule_declarations</title>
<polygon fill="none" stroke="black" points="1067,-40.8 1067,-92.8 1239,-92.8 1239,-40.8 1067,-40.8"/>
</g>
<g id="clust41" class="cluster">
<title>cluster_SplashModule_imports</title>
<polygon fill="none" stroke="black" points="901,-40.8 901,-92.8 1059,-92.8 1059,-40.8 901,-40.8"/>
</g>
<g id="clust42" class="cluster">
<title>cluster_SplashModule_exports</title>
<polygon fill="none" stroke="black" points="901,-184.8 901,-236.8 1077,-236.8 1077,-184.8 901,-184.8"/>
</g>
<g id="clust51" class="cluster">
<title>cluster_ViewModule</title>
<polygon fill="none" stroke="black" stroke-dasharray="1,5" points="1255,-32.8 1255,-244.8 2104,-244.8 2104,-32.8 1255,-32.8"/>
</g>
<g id="clust52" class="cluster">
<title>cluster_ViewModule_declarations</title>
<polygon fill="none" stroke="black" points="1421,-40.8 1421,-92.8 2096,-92.8 2096,-40.8 1421,-40.8"/>
</g>
<g id="clust57" class="cluster">
<title>cluster_ViewModule_imports</title>
<polygon fill="none" stroke="black" points="1263,-40.8 1263,-92.8 1413,-92.8 1413,-40.8 1263,-40.8"/>
</g>
<g id="clust58" class="cluster">
<title>cluster_ViewModule_exports</title>
<polygon fill="none" stroke="black" points="1339,-184.8 1339,-236.8 1843,-236.8 1843,-184.8 1339,-184.8"/>
</g>
<!-- AppComponent -->
<g id="node1" class="node">
<title>AppComponent</title>
<polygon fill="#ffffb3" stroke="black" points="576.94,-160.8 471.06,-160.8 471.06,-124.8 576.94,-124.8 576.94,-160.8"/>
<text text-anchor="middle" x="524" y="-138.6" font-family="Times,serif" font-size="14.00">AppComponent</text>
</g>
<!-- AppModule -->
<g id="node2" class="node">
<title>AppModule</title>
<polygon fill="#8dd3c7" stroke="black" points="424.66,-228.8 421.66,-232.8 400.66,-232.8 397.66,-228.8 341.34,-228.8 341.34,-192.8 424.66,-192.8 424.66,-228.8"/>
<text text-anchor="middle" x="383" y="-206.6" font-family="Times,serif" font-size="14.00">AppModule</text>
</g>
<!-- AppComponent&#45;&gt;AppModule -->
<g id="edge1" class="edge">
<title>AppComponent&#45;&gt;AppModule</title>
<path fill="none" stroke="black" d="M524,-161.02C524,-181.17 524,-210.8 524,-210.8 524,-210.8 434.92,-210.8 434.92,-210.8"/>
<polygon fill="black" stroke="black" points="434.92,-207.3 424.92,-210.8 434.92,-214.3 434.92,-207.3"/>
</g>
<!-- AppComponent  -->
<g id="node5" class="node">
<title>AppComponent </title>
<polygon fill="#80b1d3" stroke="black" points="437.44,-296.8 328.56,-296.8 328.56,-260.8 437.44,-260.8 437.44,-296.8"/>
<text text-anchor="middle" x="383" y="-274.6" font-family="Times,serif" font-size="14.00">AppComponent </text>
</g>
<!-- AppModule&#45;&gt;AppComponent  -->
<g id="edge4" class="edge">
<title>AppModule&#45;&gt;AppComponent </title>
<path fill="none" stroke="black" stroke-dasharray="1,5" d="M383,-229.02C383,-229.02 383,-250.53 383,-250.53"/>
<polygon fill="black" stroke="black" points="379.5,-250.53 383,-260.53 386.5,-250.53 379.5,-250.53"/>
</g>
<!-- AppRoutingModule -->
<g id="node3" class="node">
<title>AppRoutingModule</title>
<polygon fill="#8dd3c7" stroke="black" points="447.28,-160.8 444.28,-164.8 423.28,-164.8 420.28,-160.8 318.72,-160.8 318.72,-124.8 447.28,-124.8 447.28,-160.8"/>
<text text-anchor="middle" x="383" y="-138.6" font-family="Times,serif" font-size="14.00">AppRoutingModule</text>
</g>
<!-- AppRoutingModule&#45;&gt;AppModule -->
<g id="edge2" class="edge">
<title>AppRoutingModule&#45;&gt;AppModule</title>
<path fill="none" stroke="black" d="M383,-161.02C383,-161.02 383,-182.53 383,-182.53"/>
<polygon fill="black" stroke="black" points="379.5,-182.53 383,-192.53 386.5,-182.53 379.5,-182.53"/>
</g>
<!-- CoreModule -->
<g id="node4" class="node">
<title>CoreModule</title>
<polygon fill="#8dd3c7" stroke="black" points="300.27,-160.8 297.27,-164.8 276.27,-164.8 273.27,-160.8 213.73,-160.8 213.73,-124.8 300.27,-124.8 300.27,-160.8"/>
<text text-anchor="middle" x="257" y="-138.6" font-family="Times,serif" font-size="14.00">CoreModule</text>
</g>
<!-- CoreModule&#45;&gt;AppModule -->
<g id="edge3" class="edge">
<title>CoreModule&#45;&gt;AppModule</title>
<path fill="none" stroke="black" d="M257,-161.02C257,-181.17 257,-210.8 257,-210.8 257,-210.8 331.04,-210.8 331.04,-210.8"/>
<polygon fill="black" stroke="black" points="331.04,-214.3 341.04,-210.8 331.04,-207.3 331.04,-214.3"/>
</g>
<!-- AuthService -->
<g id="node6" class="node">
<title>AuthService</title>
<ellipse fill="#fdb462" stroke="black" cx="257" cy="-66.8" rx="59.11" ry="18"/>
<text text-anchor="middle" x="257" y="-62.6" font-family="Times,serif" font-size="14.00">AuthService</text>
</g>
<!-- AuthService&#45;&gt;CoreModule -->
<g id="edge5" class="edge">
<title>AuthService&#45;&gt;CoreModule</title>
<path fill="none" stroke="black" d="M242.54,-84.43C242.54,-84.43 242.54,-114.74 242.54,-114.74"/>
<polygon fill="black" stroke="black" points="239.04,-114.74 242.54,-124.74 246.04,-114.74 239.04,-114.74"/>
</g>
<!-- BusEventService -->
<g id="node7" class="node">
<title>BusEventService</title>
<ellipse fill="#fdb462" stroke="black" cx="102" cy="-66.8" rx="77.59" ry="18"/>
<text text-anchor="middle" x="102" y="-62.6" font-family="Times,serif" font-size="14.00">BusEventService</text>
</g>
<!-- BusEventService&#45;&gt;CoreModule -->
<g id="edge6" class="edge">
<title>BusEventService&#45;&gt;CoreModule</title>
<path fill="none" stroke="black" d="M102,-84.81C102,-107.29 102,-142.8 102,-142.8 102,-142.8 203.41,-142.8 203.41,-142.8"/>
<polygon fill="black" stroke="black" points="203.41,-146.3 213.41,-142.8 203.41,-139.3 203.41,-146.3"/>
</g>
<!-- MessageService -->
<g id="node8" class="node">
<title>MessageService</title>
<ellipse fill="#fdb462" stroke="black" cx="408" cy="-66.8" rx="73.57" ry="18"/>
<text text-anchor="middle" x="408" y="-62.6" font-family="Times,serif" font-size="14.00">MessageService</text>
</g>
<!-- MessageService&#45;&gt;CoreModule -->
<g id="edge7" class="edge">
<title>MessageService&#45;&gt;CoreModule</title>
<path fill="none" stroke="black" d="M390.8,-84.33C390.8,-96.96 390.8,-111.8 390.8,-111.8 390.8,-111.8 271.46,-111.8 271.46,-111.8 271.46,-111.8 271.46,-114.77 271.46,-114.77"/>
<polygon fill="black" stroke="black" points="267.96,-114.77 271.46,-124.77 274.96,-114.77 267.96,-114.77"/>
</g>
<!-- BsImportModule  -->
<g id="node9" class="node">
<title>BsImportModule </title>
<polygon fill="#fb8072" stroke="black" points="732.94,-160.8 617.06,-160.8 617.06,-124.8 732.94,-124.8 732.94,-160.8"/>
<text text-anchor="middle" x="675" y="-138.6" font-family="Times,serif" font-size="14.00">BsImportModule </text>
</g>
<!-- NgImportModule  -->
<g id="node10" class="node">
<title>NgImportModule </title>
<polygon fill="#fb8072" stroke="black" points="869.27,-160.8 750.73,-160.8 750.73,-124.8 869.27,-124.8 869.27,-160.8"/>
<text text-anchor="middle" x="810" y="-138.6" font-family="Times,serif" font-size="14.00">NgImportModule </text>
</g>
<!-- SharedModule -->
<g id="node11" class="node">
<title>SharedModule</title>
<polygon fill="#8dd3c7" stroke="black" points="868.43,-84.8 865.43,-88.8 844.43,-88.8 841.43,-84.8 769.57,-84.8 769.57,-48.8 868.43,-48.8 868.43,-84.8"/>
<text text-anchor="middle" x="819" y="-62.6" font-family="Times,serif" font-size="14.00">SharedModule</text>
</g>
<!-- SharedModule&#45;&gt;BsImportModule  -->
<g id="edge8" class="edge">
<title>SharedModule&#45;&gt;BsImportModule </title>
<path fill="none" stroke="black" stroke-dasharray="5,2" d="M769.44,-66.8C727.79,-66.8 675,-66.8 675,-66.8 675,-66.8 675,-114.79 675,-114.79"/>
<polygon fill="black" stroke="black" points="671.5,-114.79 675,-124.79 678.5,-114.79 671.5,-114.79"/>
</g>
<!-- SharedModule&#45;&gt;NgImportModule  -->
<g id="edge9" class="edge">
<title>SharedModule&#45;&gt;NgImportModule </title>
<path fill="none" stroke="black" stroke-dasharray="5,2" d="M802.6,-84.81C802.6,-84.81 802.6,-114.65 802.6,-114.65"/>
<polygon fill="black" stroke="black" points="799.1,-114.65 802.6,-124.65 806.1,-114.65 799.1,-114.65"/>
</g>
<!-- SplashModule -->
<g id="node13" class="node">
<title>SplashModule</title>
<polygon fill="#8dd3c7" stroke="black" points="1032.39,-160.8 1029.39,-164.8 1008.39,-164.8 1005.39,-160.8 935.61,-160.8 935.61,-124.8 1032.39,-124.8 1032.39,-160.8"/>
<text text-anchor="middle" x="984" y="-138.6" font-family="Times,serif" font-size="14.00">SplashModule</text>
</g>
<!-- SharedModule&#45;&gt;SplashModule -->
<g id="edge11" class="edge">
<title>SharedModule&#45;&gt;SplashModule</title>
<path fill="none" stroke="black" d="M868.38,-66.8C879.96,-66.8 889,-66.8 889,-66.8 889,-66.8 889,-142.8 889,-142.8 889,-142.8 925.39,-142.8 925.39,-142.8"/>
<polygon fill="black" stroke="black" points="925.39,-146.3 935.39,-142.8 925.39,-139.3 925.39,-146.3"/>
</g>
<!-- ViewModule -->
<g id="node20" class="node">
<title>ViewModule</title>
<polygon fill="#8dd3c7" stroke="black" points="1622.88,-160.8 1619.88,-164.8 1598.88,-164.8 1595.88,-160.8 1533.12,-160.8 1533.12,-124.8 1622.88,-124.8 1622.88,-160.8"/>
<text text-anchor="middle" x="1578" y="-138.6" font-family="Times,serif" font-size="14.00">ViewModule</text>
</g>
<!-- SharedModule&#45;&gt;ViewModule -->
<g id="edge18" class="edge">
<title>SharedModule&#45;&gt;ViewModule</title>
<path fill="none" stroke="black" d="M835.4,-85.04C835.4,-92.23 835.4,-98.8 835.4,-98.8 835.4,-98.8 1543.2,-98.8 1543.2,-98.8 1543.2,-98.8 1543.2,-114.65 1543.2,-114.65"/>
<polygon fill="black" stroke="black" points="1539.7,-114.65 1543.2,-124.65 1546.7,-114.65 1539.7,-114.65"/>
</g>
<!-- SplashScreenComponent -->
<g id="node12" class="node">
<title>SplashScreenComponent</title>
<polygon fill="#ffffb3" stroke="black" points="1231.26,-84.8 1074.74,-84.8 1074.74,-48.8 1231.26,-48.8 1231.26,-84.8"/>
<text text-anchor="middle" x="1153" y="-62.6" font-family="Times,serif" font-size="14.00">SplashScreenComponent</text>
</g>
<!-- SplashScreenComponent&#45;&gt;SplashModule -->
<g id="edge10" class="edge">
<title>SplashScreenComponent&#45;&gt;SplashModule</title>
<path fill="none" stroke="black" d="M1153,-84.81C1153,-107.29 1153,-142.8 1153,-142.8 1153,-142.8 1042.43,-142.8 1042.43,-142.8"/>
<polygon fill="black" stroke="black" points="1042.43,-139.3 1032.43,-142.8 1042.43,-146.3 1042.43,-139.3"/>
</g>
<!-- SplashScreenComponent  -->
<g id="node15" class="node">
<title>SplashScreenComponent </title>
<polygon fill="#fb8072" stroke="black" points="1069.26,-228.8 908.74,-228.8 908.74,-192.8 1069.26,-192.8 1069.26,-228.8"/>
<text text-anchor="middle" x="989" y="-206.6" font-family="Times,serif" font-size="14.00">SplashScreenComponent </text>
</g>
<!-- SplashModule&#45;&gt;SplashScreenComponent  -->
<g id="edge13" class="edge">
<title>SplashModule&#45;&gt;SplashScreenComponent </title>
<path fill="none" stroke="black" stroke-dasharray="5,2" d="M984,-161.02C984,-161.02 984,-182.53 984,-182.53"/>
<polygon fill="black" stroke="black" points="980.5,-182.53 984,-192.53 987.5,-182.53 980.5,-182.53"/>
</g>
<!-- SplashRoutingModule -->
<g id="node14" class="node">
<title>SplashRoutingModule</title>
<polygon fill="#8dd3c7" stroke="black" points="1051.01,-84.8 1048.01,-88.8 1027.01,-88.8 1024.01,-84.8 908.99,-84.8 908.99,-48.8 1051.01,-48.8 1051.01,-84.8"/>
<text text-anchor="middle" x="980" y="-62.6" font-family="Times,serif" font-size="14.00">SplashRoutingModule</text>
</g>
<!-- SplashRoutingModule&#45;&gt;SplashModule -->
<g id="edge12" class="edge">
<title>SplashRoutingModule&#45;&gt;SplashModule</title>
<path fill="none" stroke="black" d="M984,-84.81C984,-84.81 984,-114.65 984,-114.65"/>
<polygon fill="black" stroke="black" points="980.5,-114.65 984,-124.65 987.5,-114.65 980.5,-114.65"/>
</g>
<!-- ViewHomeComponent -->
<g id="node16" class="node">
<title>ViewHomeComponent</title>
<polygon fill="#ffffb3" stroke="black" points="1726.87,-84.8 1581.13,-84.8 1581.13,-48.8 1726.87,-48.8 1726.87,-84.8"/>
<text text-anchor="middle" x="1654" y="-62.6" font-family="Times,serif" font-size="14.00">ViewHomeComponent</text>
</g>
<!-- ViewHomeComponent&#45;&gt;ViewModule -->
<g id="edge14" class="edge">
<title>ViewHomeComponent&#45;&gt;ViewModule</title>
<path fill="none" stroke="black" d="M1602,-84.81C1602,-84.81 1602,-114.65 1602,-114.65"/>
<polygon fill="black" stroke="black" points="1598.5,-114.65 1602,-124.65 1605.5,-114.65 1598.5,-114.65"/>
</g>
<!-- ViewInfoComponent -->
<g id="node17" class="node">
<title>ViewInfoComponent</title>
<polygon fill="#ffffb3" stroke="black" points="1563.48,-84.8 1428.52,-84.8 1428.52,-48.8 1563.48,-48.8 1563.48,-84.8"/>
<text text-anchor="middle" x="1496" y="-62.6" font-family="Times,serif" font-size="14.00">ViewInfoComponent</text>
</g>
<!-- ViewInfoComponent&#45;&gt;ViewModule -->
<g id="edge15" class="edge">
<title>ViewInfoComponent&#45;&gt;ViewModule</title>
<path fill="none" stroke="black" d="M1553.35,-84.81C1553.35,-84.81 1553.35,-114.65 1553.35,-114.65"/>
<polygon fill="black" stroke="black" points="1549.85,-114.65 1553.35,-124.65 1556.85,-114.65 1549.85,-114.65"/>
</g>
<!-- ViewMessageComponent -->
<g id="node18" class="node">
<title>ViewMessageComponent</title>
<polygon fill="#ffffb3" stroke="black" points="2088.14,-84.8 1927.86,-84.8 1927.86,-48.8 2088.14,-48.8 2088.14,-84.8"/>
<text text-anchor="middle" x="2008" y="-62.6" font-family="Times,serif" font-size="14.00">ViewMessageComponent</text>
</g>
<!-- ViewMessageComponent&#45;&gt;ViewModule -->
<g id="edge16" class="edge">
<title>ViewMessageComponent&#45;&gt;ViewModule</title>
<path fill="none" stroke="black" d="M2008,-84.81C2008,-107.29 2008,-142.8 2008,-142.8 2008,-142.8 1633.2,-142.8 1633.2,-142.8"/>
<polygon fill="black" stroke="black" points="1633.2,-139.3 1623.2,-142.8 1633.2,-146.3 1633.2,-139.3"/>
</g>
<!-- ViewTemplateComponent -->
<g id="node19" class="node">
<title>ViewTemplateComponent</title>
<polygon fill="#ffffb3" stroke="black" points="1909.02,-84.8 1744.98,-84.8 1744.98,-48.8 1909.02,-48.8 1909.02,-84.8"/>
<text text-anchor="middle" x="1827" y="-62.6" font-family="Times,serif" font-size="14.00">ViewTemplateComponent</text>
</g>
<!-- ViewTemplateComponent&#45;&gt;ViewModule -->
<g id="edge17" class="edge">
<title>ViewTemplateComponent&#45;&gt;ViewModule</title>
<path fill="none" stroke="black" d="M1789.91,-85.11C1789.91,-104.95 1789.91,-133.8 1789.91,-133.8 1789.91,-133.8 1632.94,-133.8 1632.94,-133.8"/>
<polygon fill="black" stroke="black" points="1632.94,-130.3 1622.94,-133.8 1632.94,-137.3 1632.94,-130.3"/>
</g>
<!-- ViewHomeComponent  -->
<g id="node22" class="node">
<title>ViewHomeComponent </title>
<polygon fill="#fb8072" stroke="black" points="1652.87,-228.8 1503.13,-228.8 1503.13,-192.8 1652.87,-192.8 1652.87,-228.8"/>
<text text-anchor="middle" x="1578" y="-206.6" font-family="Times,serif" font-size="14.00">ViewHomeComponent </text>
</g>
<!-- ViewModule&#45;&gt;ViewHomeComponent  -->
<g id="edge20" class="edge">
<title>ViewModule&#45;&gt;ViewHomeComponent </title>
<path fill="none" stroke="black" stroke-dasharray="5,2" d="M1578,-161.02C1578,-161.02 1578,-182.53 1578,-182.53"/>
<polygon fill="black" stroke="black" points="1574.5,-182.53 1578,-192.53 1581.5,-182.53 1574.5,-182.53"/>
</g>
<!-- ViewInfoComponent  -->
<g id="node23" class="node">
<title>ViewInfoComponent </title>
<polygon fill="#fb8072" stroke="black" points="1485.48,-228.8 1346.52,-228.8 1346.52,-192.8 1485.48,-192.8 1485.48,-228.8"/>
<text text-anchor="middle" x="1416" y="-206.6" font-family="Times,serif" font-size="14.00">ViewInfoComponent </text>
</g>
<!-- ViewModule&#45;&gt;ViewInfoComponent  -->
<g id="edge21" class="edge">
<title>ViewModule&#45;&gt;ViewInfoComponent </title>
<path fill="none" stroke="black" stroke-dasharray="5,2" d="M1532.9,-151.8C1498.46,-151.8 1456.88,-151.8 1456.88,-151.8 1456.88,-151.8 1456.88,-182.78 1456.88,-182.78"/>
<polygon fill="black" stroke="black" points="1453.38,-182.78 1456.88,-192.78 1460.38,-182.78 1453.38,-182.78"/>
</g>
<!-- ViewMessageComponent  -->
<g id="node24" class="node">
<title>ViewMessageComponent </title>
<polygon fill="#fb8072" stroke="black" points="1835.14,-228.8 1670.86,-228.8 1670.86,-192.8 1835.14,-192.8 1835.14,-228.8"/>
<text text-anchor="middle" x="1753" y="-206.6" font-family="Times,serif" font-size="14.00">ViewMessageComponent </text>
</g>
<!-- ViewModule&#45;&gt;ViewMessageComponent  -->
<g id="edge22" class="edge">
<title>ViewModule&#45;&gt;ViewMessageComponent </title>
<path fill="none" stroke="black" stroke-dasharray="5,2" d="M1623.03,-151.8C1657.41,-151.8 1698.93,-151.8 1698.93,-151.8 1698.93,-151.8 1698.93,-182.78 1698.93,-182.78"/>
<polygon fill="black" stroke="black" points="1695.43,-182.78 1698.93,-192.78 1702.43,-182.78 1695.43,-182.78"/>
</g>
<!-- ViewRoutingModule -->
<g id="node21" class="node">
<title>ViewRoutingModule</title>
<polygon fill="#8dd3c7" stroke="black" points="1405.49,-84.8 1402.49,-88.8 1381.49,-88.8 1378.49,-84.8 1270.51,-84.8 1270.51,-48.8 1405.49,-48.8 1405.49,-84.8"/>
<text text-anchor="middle" x="1338" y="-62.6" font-family="Times,serif" font-size="14.00">ViewRoutingModule</text>
</g>
<!-- ViewRoutingModule&#45;&gt;ViewModule -->
<g id="edge19" class="edge">
<title>ViewRoutingModule&#45;&gt;ViewModule</title>
<path fill="none" stroke="black" d="M1376.13,-85.11C1376.13,-104.95 1376.13,-133.8 1376.13,-133.8 1376.13,-133.8 1522.95,-133.8 1522.95,-133.8"/>
<polygon fill="black" stroke="black" points="1522.95,-137.3 1532.95,-133.8 1522.95,-130.3 1522.95,-137.3"/>
</g>
</g>
</svg>
